<svg width="40" height="41" viewBox="0 0 40 41" fill="none" xmlns="http://www.w3.org/2000/svg">
<path d="M19.8805 26.0585C20.1706 26.3523 20.5639 26.5173 20.974 26.5173C21.384 26.5173 21.7773 26.3523 22.0674 26.0585L29.7228 18.3004L37.3782 26.0585C37.6699 26.3439 38.0606 26.5019 38.4661 26.4984C38.8716 26.4948 39.2594 26.33 39.5462 26.0394C39.8329 25.7488 39.9956 25.3557 39.9991 24.9447C40.0026 24.5338 39.8467 24.1379 39.565 23.8423L30.8162 14.9762C30.5262 14.6824 30.1329 14.5173 29.7228 14.5173C29.3127 14.5173 28.9194 14.6824 28.6294 14.9762L19.8805 23.8423C19.5906 24.1362 19.4277 24.5348 19.4277 24.9504C19.4277 25.366 19.5906 25.7645 19.8805 26.0585Z" fill="#1F1F1F"/>
</svg>
