<svg width="320" height="73" viewBox="0 0 320 73" fill="none" xmlns="http://www.w3.org/2000/svg">
<path d="M0 20.0173C0 8.97162 8.95431 0.017334 20 0.017334H300C311.046 0.017334 320 8.97164 320 20.0173V72.0172H0V20.0173Z" fill="white"/>
<path d="M31.5999 48.817C31.5999 48.267 31.404 47.7962 31.0124 47.4045C30.6207 47.0129 30.1499 46.817 29.5999 46.817C29.0499 46.817 28.5791 47.0129 28.1874 47.4045C27.7957 47.7962 27.5999 48.267 27.5999 48.817C27.5999 49.367 27.7957 49.8378 28.1874 50.2295C28.5791 50.6211 29.0499 50.817 29.5999 50.817C30.1499 50.817 30.6207 50.6211 31.0124 50.2295C31.404 49.8378 31.5999 49.367 31.5999 48.817ZM36.7998 44.817V27.2172C36.7998 27.0006 36.7206 26.8131 36.5623 26.6548C36.404 26.4964 36.2165 26.4173 35.9998 26.4173H23.2C22.9833 26.4173 22.7958 26.4964 22.6375 26.6548C22.4791 26.8131 22.4 27.0006 22.4 27.2172V44.817C22.4 45.0337 22.4791 45.2212 22.6375 45.3795C22.7958 45.5379 22.9833 45.617 23.2 45.617H35.9998C36.2165 45.617 36.404 45.5379 36.5623 45.3795C36.7206 45.2212 36.7998 45.0337 36.7998 44.817ZM31.9999 23.6173C31.9999 23.3506 31.8665 23.2173 31.5999 23.2173H27.5999C27.3332 23.2173 27.1999 23.3506 27.1999 23.6173C27.1999 23.884 27.3332 24.0173 27.5999 24.0173H31.5999C31.8665 24.0173 31.9999 23.884 31.9999 23.6173ZM39.1998 23.2173V48.817C39.1998 49.6837 38.8831 50.4336 38.2498 51.067C37.6165 51.7003 36.8665 52.017 35.9998 52.017H23.2C22.3333 52.017 21.5833 51.7003 20.95 51.067C20.3167 50.4336 20 49.6837 20 48.817V23.2173C20 22.3506 20.3167 21.6006 20.95 20.9673C21.5833 20.334 22.3333 20.0173 23.2 20.0173H35.9998C36.8665 20.0173 37.6165 20.334 38.2498 20.9673C38.8831 21.6006 39.1998 22.3506 39.1998 23.2173Z" fill="#FFC350"/>
<path d="M75.0595 48.3548V34.8499L73.2283 36.2691C72.8011 36.5743 72.3433 36.6963 71.8549 36.6353C71.3666 36.5743 70.9699 36.3301 70.6647 35.9028C70.3595 35.4755 70.2447 35.0178 70.3204 34.5294C70.3961 34.0411 70.6329 33.6444 71.0309 33.3392L87.4658 20.7498C87.8015 20.5056 88.1604 20.3225 88.5425 20.2005C88.9246 20.0784 89.3134 20.0173 89.7089 20.0173C90.1057 20.0173 90.4951 20.0784 90.8772 20.2005C91.2593 20.3225 91.6176 20.5056 91.9521 20.7498L108.433 33.3392C108.83 33.6444 109.058 34.0411 109.119 34.5294C109.18 35.0178 109.058 35.4755 108.753 35.9028C108.448 36.2996 108.051 36.5285 107.563 36.5895C107.075 36.6506 106.632 36.5285 106.235 36.2233L104.358 34.8499V48.3548C104.358 49.362 104 50.2245 103.283 50.9423C102.567 51.6601 101.704 52.0184 100.696 52.0172H78.7219C77.7147 52.0172 76.8522 51.6583 76.1344 50.9405C75.4166 50.2227 75.0583 49.3608 75.0595 48.3548ZM82.3842 41.0301C82.9031 41.0301 83.3383 40.8543 83.6899 40.5027C84.0414 40.1512 84.2166 39.7166 84.2154 39.1989C84.2154 38.6801 84.0396 38.2449 83.688 37.8933C83.3364 37.5417 82.9018 37.3665 82.3842 37.3678C81.8654 37.3678 81.4302 37.5436 81.0786 37.8951C80.727 38.2467 80.5518 38.6813 80.553 39.1989C80.553 39.7178 80.7288 40.153 81.0804 40.5046C81.432 40.8562 81.8666 41.0313 82.3842 41.0301ZM89.7089 41.0301C90.2278 41.0301 90.663 40.8543 91.0146 40.5027C91.3662 40.1512 91.5413 39.7166 91.5401 39.1989C91.5401 38.6801 91.3643 38.2449 91.0127 37.8933C90.6612 37.5417 90.2266 37.3665 89.7089 37.3678C89.1901 37.3678 88.7549 37.5436 88.4033 37.8951C88.0517 38.2467 87.8765 38.6813 87.8778 39.1989C87.8778 39.7178 88.0536 40.153 88.4051 40.5046C88.7567 40.8562 89.1913 41.0313 89.7089 41.0301ZM97.0337 41.0301C97.5525 41.0301 97.9877 40.8543 98.3393 40.5027C98.6909 40.1512 98.8661 39.7166 98.8648 39.1989C98.8648 38.6801 98.6891 38.2449 98.3375 37.8933C97.9859 37.5417 97.5513 37.3665 97.0337 37.3678C96.5148 37.3678 96.0796 37.5436 95.728 37.8951C95.3764 38.2467 95.2013 38.6813 95.2025 39.1989C95.2025 39.7178 95.3783 40.153 95.7299 40.5046C96.0815 40.8562 96.5161 41.0313 97.0337 41.0301Z" fill="#FFC350"/>
<mask id="mask0_840_14252" style="mask-type:luminance" maskUnits="userSpaceOnUse" x="138" y="18" width="33" height="33">
<path d="M157.633 32.342V28.7171M151.833 32.342V28.7171M154.733 49.0168C162.742 49.0168 169.233 42.5252 169.233 34.517C169.233 26.5088 162.742 20.0172 154.733 20.0172C146.725 20.0172 140.233 26.5088 140.233 34.517C140.233 42.5252 146.725 49.0168 154.733 49.0168Z" stroke="white" stroke-width="3.19999" stroke-linecap="round" stroke-linejoin="round"/>
<path d="M154.734 40.3166C156.272 40.3166 157.747 39.7055 158.835 38.6178C159.923 37.5301 160.534 36.0549 160.534 34.5166V32.3417H148.934V34.5166C148.934 36.0549 149.545 37.5301 150.632 38.6178C151.72 39.7055 153.195 40.3166 154.734 40.3166Z" fill="white" stroke="white" stroke-width="3.19999" stroke-linecap="round" stroke-linejoin="round"/>
<path d="M154.733 49.0173V40.3174" stroke="white" stroke-width="3.19999" stroke-linecap="round" stroke-linejoin="round"/>
</mask>
<g mask="url(#mask0_840_14252)">
<path d="M137.333 17.1199H172.133V51.9194H137.333V17.1199Z" fill="#FFC350"/>
</g>
<path d="M230.044 20.0173H202.617C202.011 20.0173 201.429 20.2581 201.001 20.6868C200.572 21.1154 200.331 21.6968 200.331 22.303V49.7307C200.331 50.3369 200.572 50.9182 201.001 51.3469C201.429 51.7755 202.011 52.0163 202.617 52.0163H230.044C230.651 52.0163 231.232 51.7755 231.661 51.3469C232.089 50.9182 232.33 50.3369 232.33 49.7307V22.303C232.33 21.6968 232.089 21.1154 231.661 20.6868C231.232 20.2581 230.651 20.0173 230.044 20.0173ZM218.616 23.4458H220.902V26.8743H218.616V23.4458ZM211.759 23.4458H214.045V26.8743H211.759V23.4458ZM207.188 48.5879H204.902V45.1594H207.188V48.5879ZM207.188 26.8743H204.902V23.4458H207.188V26.8743ZM214.045 48.5879H211.759V45.1594H214.045V48.5879ZM220.902 48.5879H218.616V45.1594H220.902V48.5879ZM224.513 36.9768L213.348 41.9595C213.174 42.0331 212.985 42.0625 212.797 42.0452C212.609 42.0278 212.429 41.9643 212.271 41.8602C212.114 41.756 211.985 41.6146 211.896 41.4485C211.806 41.2824 211.759 41.0967 211.759 40.9081V30.9541C211.76 30.7635 211.808 30.576 211.899 30.4087C211.99 30.2414 212.122 30.0997 212.282 29.9963C212.443 29.8929 212.626 29.8313 212.816 29.8169C213.006 29.8026 213.197 29.836 213.371 29.9142L224.513 34.874C224.719 34.9618 224.895 35.1083 225.019 35.2952C225.142 35.4822 225.208 35.7013 225.208 35.9254C225.208 36.1495 225.142 36.3686 225.019 36.5555C224.895 36.7425 224.719 36.889 224.513 36.9768ZM227.759 48.5879H225.473V45.1594H227.759V48.5879ZM227.759 26.8743H225.473V23.4458H227.759V26.8743Z" fill="#FFC350"/>
<path d="M273.086 26.1173L271.222 31.4459H292.207L290.343 26.1173C290.021 25.203 289.157 24.5887 288.186 24.5887H275.243C274.272 24.5887 273.407 25.203 273.086 26.1173ZM266.257 31.7887L268.772 24.6102C269.736 21.8602 272.329 20.0173 275.243 20.0173H288.186C291.1 20.0173 293.693 21.8602 294.657 24.6102L297.171 31.7887C298.829 32.4744 300 34.1101 300 36.0173V49.7315C300 50.9958 298.979 52.0172 297.714 52.0172H295.429C294.164 52.0172 293.143 50.9958 293.143 49.7315V46.3029H270.286V49.7315C270.286 50.9958 269.264 52.0172 268 52.0172H265.714C264.45 52.0172 263.429 50.9958 263.429 49.7315V36.0173C263.429 34.1101 264.6 32.4744 266.257 31.7887ZM272.572 38.303C272.572 37.6968 272.331 37.1154 271.902 36.6867C271.473 36.2581 270.892 36.0173 270.286 36.0173C269.68 36.0173 269.098 36.2581 268.67 36.6867C268.241 37.1154 268 37.6968 268 38.303C268 38.9092 268.241 39.4906 268.67 39.9192C269.098 40.3479 269.68 40.5887 270.286 40.5887C270.892 40.5887 271.473 40.3479 271.902 39.9192C272.331 39.4906 272.572 38.9092 272.572 38.303ZM293.143 40.5887C293.749 40.5887 294.33 40.3479 294.759 39.9192C295.188 39.4906 295.429 38.9092 295.429 38.303C295.429 37.6968 295.188 37.1154 294.759 36.6867C294.33 36.2581 293.749 36.0173 293.143 36.0173C292.537 36.0173 291.955 36.2581 291.527 36.6867C291.098 37.1154 290.857 37.6968 290.857 38.303C290.857 38.9092 291.098 39.4906 291.527 39.9192C291.955 40.3479 292.537 40.5887 293.143 40.5887Z" fill="#FFC350"/>
</svg>
