<svg width="40" height="40" viewBox="0 0 40 40" fill="none" xmlns="http://www.w3.org/2000/svg">
<path d="M0.486413 20.5297C0.798266 20.2188 1.221 20.0443 1.66175 20.0443C2.1025 20.0443 2.52524 20.2188 2.83709 20.5297L9.97782 27.6553L17.1186 20.5297C17.3218 20.3112 17.5804 20.1515 17.8671 20.0674C18.1537 19.9832 18.4577 19.9778 18.7472 20.0517C19.0366 20.1255 19.3008 20.2759 19.5117 20.487C19.7227 20.6981 19.8728 20.962 19.946 21.2511C20.0201 21.5396 20.015 21.8427 19.931 22.1285C19.8471 22.4143 19.6876 22.6723 19.4692 22.8754L12.3285 30.001L19.4692 37.1266C19.6882 37.3295 19.8482 37.5875 19.9325 37.8735C20.0168 38.1596 20.0222 38.463 19.9482 38.7518C19.8742 39.0406 19.7235 39.3042 19.512 39.5148C19.3004 39.7253 19.0359 39.875 18.7463 39.9481C18.4572 40.0221 18.1534 40.0169 17.867 39.9332C17.5805 39.8494 17.322 39.6902 17.1186 39.4723L9.97782 32.3467L2.83709 39.4723C2.52161 39.7653 2.10458 39.9249 1.67366 39.9175C1.24274 39.91 0.831481 39.7362 0.52633 39.4325C0.221977 39.128 0.0477706 38.7176 0.0403266 38.2876C0.0328827 37.8576 0.192781 37.4414 0.486413 37.1266L7.62714 30.001L0.486413 22.8754C0.174947 22.5642 0 22.1423 0 21.7025C0 21.2627 0.174947 20.8408 0.486413 20.5297Z" fill="#1F1F1F"/>
</svg>
