<svg width="40" height="40" viewBox="0 0 40 40" fill="none" xmlns="http://www.w3.org/2000/svg">
<path fill-rule="evenodd" clip-rule="evenodd" d="M28 32C34.6274 32 40 26.6274 40 20C40 13.3726 34.6274 8 28 8C21.3726 8 16 13.3726 16 20C16 26.6274 21.3726 32 28 32ZM22.5661 25.4339C24.0812 26.9489 26.136 27.8 28.2785 27.8C31.5517 27.8 34.4865 25.9197 35.7536 23.0082C35.7983 22.9056 35.8111 22.7919 35.7903 22.682C35.7694 22.572 35.716 22.4708 35.6368 22.3917C35.5577 22.3126 35.4565 22.2591 35.3465 22.2382C35.2366 22.2174 35.1229 22.2302 35.0203 22.2749C34.2528 22.6092 33.2698 22.7857 32.1785 22.7857C28.3384 22.7857 25.2143 19.6616 25.2143 15.8215C25.2143 14.7302 25.3908 13.7472 25.7251 12.9797C25.7698 12.8771 25.7826 12.7634 25.7618 12.6535C25.7409 12.5435 25.6874 12.4423 25.6083 12.3632C25.5292 12.284 25.428 12.2306 25.318 12.2097C25.2081 12.1889 25.0944 12.2017 24.9917 12.2464C22.0803 13.5135 20.2 16.4483 20.2 19.7215C20.2 21.864 21.0511 23.9188 22.5661 25.4339Z" fill="#1F1F1F"/>
</svg>
