<svg width="24" height="25" viewBox="0 0 24 25" fill="none" xmlns="http://www.w3.org/2000/svg">
<path fill-rule="evenodd" clip-rule="evenodd" d="M12 24.0171C18.6274 24.0171 24 18.6445 24 12.0171C24 5.38967 18.6274 0.0170898 12 0.0170898C5.37258 0.0170898 0 5.38967 0 12.0171C0 18.6445 5.37258 24.0171 12 24.0171ZM6.56615 17.4509C8.08116 18.966 10.136 19.8171 12.2785 19.8171C15.5517 19.8171 18.4865 17.9367 19.7536 15.0253C19.7983 14.9227 19.8111 14.809 19.7903 14.6991C19.7694 14.5891 19.716 14.4879 19.6368 14.4088C19.5577 14.3296 19.4565 14.2762 19.3465 14.2553C19.2366 14.2345 19.1229 14.2473 19.0203 14.292C18.2528 14.6263 17.2698 14.8028 16.1785 14.8028C12.3384 14.8028 9.21426 11.6787 9.21426 7.83859C9.21426 6.74729 9.3908 5.76428 9.72508 4.99682C9.7698 4.89422 9.78258 4.78052 9.76175 4.67054C9.74092 4.56057 9.68745 4.45942 9.6083 4.38027C9.52916 4.30113 9.42801 4.24765 9.31803 4.22682C9.20806 4.20599 9.09436 4.21877 8.99175 4.26349C6.08035 5.53063 4.2 8.46537 4.2 11.7386C4.2 13.8811 5.05113 15.9359 6.56615 17.4509Z" fill="#1F1F1F"/>
</svg>
