<svg width="24" height="40" viewBox="0 0 24 40" fill="none" xmlns="http://www.w3.org/2000/svg">
<path fill-rule="evenodd" clip-rule="evenodd" d="M12 32C18.6274 32 24 26.6274 24 20C24 13.3726 18.6274 8 12 8C5.37258 8 0 13.3726 0 20C0 26.6274 5.37258 32 12 32ZM8.45455 20C8.45455 18.0429 10.0429 16.4545 12 16.4545C13.9571 16.4545 15.5455 18.0429 15.5455 20C15.5455 21.9571 13.9571 23.5455 12 23.5455C10.0429 23.5455 8.45455 21.9571 8.45455 20ZM6.32727 20.7091H4.90909C4.51909 20.7091 4.2 20.39 4.2 20C4.2 19.61 4.51909 19.2909 4.90909 19.2909H6.32727C6.71727 19.2909 7.03636 19.61 7.03636 20C7.03636 20.39 6.71727 20.7091 6.32727 20.7091ZM19.0909 20.7091H17.6727C17.2827 20.7091 16.9636 20.39 16.9636 20C16.9636 19.61 17.2827 19.2909 17.6727 19.2909H19.0909C19.4809 19.2909 19.8 19.61 19.8 20C19.8 20.39 19.4809 20.7091 19.0909 20.7091ZM11.2909 14.3273V12.9091C11.2909 12.5191 11.61 12.2 12 12.2C12.39 12.2 12.7091 12.5191 12.7091 12.9091V14.3273C12.7091 14.7173 12.39 15.0364 12 15.0364C11.61 15.0364 11.2909 14.7173 11.2909 14.3273ZM11.2909 27.0909V25.6727C11.2909 25.2827 11.61 24.9636 12 24.9636C12.39 24.9636 12.7091 25.2827 12.7091 25.6727V27.0909C12.7091 27.4809 12.39 27.8 12 27.8C11.61 27.8 11.2909 27.4809 11.2909 27.0909ZM7.50906 14.5851C7.59484 14.6207 7.67276 14.6728 7.73836 14.7385L8.49 15.4902C8.76655 15.7596 8.75945 16.2135 8.49 16.49C8.22055 16.7665 7.76673 16.7665 7.49018 16.49L6.73855 15.7384C6.67281 15.6728 6.62066 15.5948 6.58507 15.5091C6.54949 15.4233 6.53118 15.3313 6.53118 15.2385C6.53118 15.1456 6.54949 15.0536 6.58507 14.9678C6.62066 14.8821 6.67281 14.8041 6.73855 14.7385C6.80415 14.6728 6.88207 14.6207 6.96785 14.5851C7.05363 14.5495 7.14559 14.5312 7.23845 14.5312C7.33132 14.5312 7.42328 14.5495 7.50906 14.5851ZM16.2805 23.3565C16.3663 23.3921 16.4442 23.4443 16.5098 23.51L17.2615 24.2616C17.3272 24.3272 17.3793 24.4052 17.4149 24.4909C17.4505 24.5767 17.4688 24.6687 17.4688 24.7615C17.4688 24.8544 17.4505 24.9464 17.4149 25.0322C17.3793 25.1179 17.3272 25.1959 17.2615 25.2615C16.992 25.538 16.5382 25.538 16.2616 25.2615L15.51 24.5098C15.4443 24.4442 15.3921 24.3663 15.3565 24.2805C15.3209 24.1947 15.3026 24.1028 15.3026 24.0099C15.3026 23.917 15.3209 23.8251 15.3565 23.7393C15.3921 23.6535 15.4443 23.5756 15.51 23.51C15.5756 23.4443 15.6535 23.3921 15.7393 23.3565C15.8251 23.3209 15.917 23.3026 16.0099 23.3026C16.1028 23.3026 16.1947 23.3209 16.2805 23.3565ZM17.4149 15.5091C17.3793 15.5948 17.3272 15.6728 17.2615 15.7384L16.5098 16.49C16.2404 16.7665 15.7865 16.7595 15.51 16.49C15.2335 16.2205 15.2335 15.7667 15.51 15.4902L16.2616 14.7385C16.3272 14.6728 16.4052 14.6207 16.4909 14.5851C16.5767 14.5495 16.6687 14.5312 16.7615 14.5312C16.8544 14.5312 16.9464 14.5495 17.0322 14.5851C17.1179 14.6207 17.1959 14.6728 17.2615 14.7385C17.3272 14.8041 17.3793 14.8821 17.4149 14.9678C17.4505 15.0536 17.4688 15.1456 17.4688 15.2385C17.4688 15.3313 17.4505 15.4233 17.4149 15.5091ZM8.64347 24.2805C8.60789 24.3663 8.55574 24.4442 8.49 24.5098L7.73836 25.2615C7.46891 25.538 7.01509 25.5309 6.73855 25.2615C6.462 24.992 6.462 24.5382 6.73855 24.2616L7.49018 23.51C7.55578 23.4443 7.6337 23.3921 7.71948 23.3565C7.80527 23.3209 7.89722 23.3026 7.99009 23.3026C8.08296 23.3026 8.17492 23.3209 8.2607 23.3565C8.34648 23.3921 8.4244 23.4443 8.49 23.51C8.55574 23.5756 8.60789 23.6535 8.64347 23.7393C8.67905 23.8251 8.69737 23.917 8.69737 24.0099C8.69737 24.1028 8.67905 24.1947 8.64347 24.2805Z" fill="#FFCC50"/>
</svg>
