<svg width="40" height="32" viewBox="0 0 40 32" fill="none" xmlns="http://www.w3.org/2000/svg">
<path d="M5.30951 28.3375V14.8326L3.47833 16.2517C3.05105 16.5569 2.59326 16.679 2.10494 16.618C1.61663 16.5569 1.21987 16.3128 0.914675 15.8855C0.609478 15.4582 0.494724 15.0004 0.570413 14.5121C0.646101 14.0238 0.882934 13.627 1.28091 13.3218L17.7158 0.732472C18.0515 0.488314 18.4104 0.305197 18.7925 0.183118C19.1746 0.0610392 19.5634 0 19.9589 0C20.3557 0 20.7451 0.0610392 21.1272 0.183118C21.5093 0.305197 21.8676 0.488314 22.2021 0.732472L38.6828 13.3218C39.0795 13.627 39.3084 14.0238 39.3695 14.5121C39.4305 15.0004 39.3084 15.4582 39.0032 15.8855C38.698 16.2822 38.3013 16.5111 37.813 16.5722C37.3246 16.6332 36.8821 16.5111 36.4853 16.2059L34.6084 14.8326V28.3375C34.6084 29.3447 34.2501 30.2071 33.5335 30.925C32.8169 31.6428 31.9544 32.0011 30.946 31.9999H8.97187C7.96472 31.9999 7.10223 31.641 6.38441 30.9231C5.66659 30.2053 5.30829 29.3434 5.30951 28.3375ZM12.6342 21.0128C13.1531 21.0128 13.5883 20.837 13.9399 20.4854C14.2914 20.1338 14.4666 19.6992 14.4654 19.1816C14.4654 18.6628 14.2896 18.2276 13.938 17.876C13.5864 17.5244 13.1518 17.3492 12.6342 17.3504C12.1154 17.3504 11.6802 17.5262 11.3286 17.8778C10.977 18.2294 10.8018 18.664 10.803 19.1816C10.803 19.7004 10.9788 20.1357 11.3304 20.4872C11.682 20.8388 12.1166 21.014 12.6342 21.0128ZM19.9589 21.0128C20.4778 21.0128 20.913 20.837 21.2646 20.4854C21.6162 20.1338 21.7913 19.6992 21.7901 19.1816C21.7901 18.6628 21.6143 18.2276 21.2627 17.876C20.9112 17.5244 20.4766 17.3492 19.9589 17.3504C19.4401 17.3504 19.0049 17.5262 18.6533 17.8778C18.3017 18.2294 18.1265 18.664 18.1278 19.1816C18.1278 19.7004 18.3036 20.1357 18.6551 20.4872C19.0067 20.8388 19.4413 21.014 19.9589 21.0128ZM27.2837 21.0128C27.8025 21.0128 28.2377 20.837 28.5893 20.4854C28.9409 20.1338 29.1161 19.6992 29.1148 19.1816C29.1148 18.6628 28.9391 18.2276 28.5875 17.876C28.2359 17.5244 27.8013 17.3492 27.2837 17.3504C26.7648 17.3504 26.3296 17.5262 25.978 17.8778C25.6264 18.2294 25.4513 18.664 25.4525 19.1816C25.4525 19.7004 25.6283 20.1357 25.9799 20.4872C26.3315 20.8388 26.7661 21.014 27.2837 21.0128Z" fill="#FFCC50"/>
</svg>
