<svg width="37" height="33" viewBox="0 0 37 33" fill="none" xmlns="http://www.w3.org/2000/svg">
<path d="M10.0868 6.11731L8.22251 11.4459H29.2081L27.3439 6.11731C27.0224 5.20303 26.1582 4.58874 25.1867 4.58874H12.2439C11.2725 4.58874 10.4082 5.20303 10.0868 6.11731ZM3.25825 11.7887L5.77252 4.61017C6.7368 1.86018 9.32965 0.017334 12.2439 0.017334H25.1867C28.101 0.017334 30.6938 1.86018 31.6581 4.61017L34.1724 11.7887C35.8295 12.4744 37.001 14.1101 37.001 16.0173V29.7315C37.001 30.9958 35.9795 32.0172 34.7153 32.0172H32.4296C31.1653 32.0172 30.1439 30.9958 30.1439 29.7315V26.3029H7.2868V29.7315C7.2868 30.9958 6.26538 32.0172 5.0011 32.0172H2.71539C1.45111 32.0172 0.429688 30.9958 0.429688 29.7315V16.0173C0.429688 14.1101 1.60111 12.4744 3.25825 11.7887ZM9.57251 18.303C9.57251 17.6968 9.33169 17.1154 8.90304 16.6867C8.47439 16.2581 7.89301 16.0173 7.2868 16.0173C6.6806 16.0173 6.09922 16.2581 5.67056 16.6867C5.24191 17.1154 5.0011 17.6968 5.0011 18.303C5.0011 18.9092 5.24191 19.4906 5.67056 19.9192C6.09922 20.3479 6.6806 20.5887 7.2868 20.5887C7.89301 20.5887 8.47439 20.3479 8.90304 19.9192C9.33169 19.4906 9.57251 18.9092 9.57251 18.303ZM30.1439 20.5887C30.7501 20.5887 31.3314 20.3479 31.7601 19.9192C32.1887 19.4906 32.4296 18.9092 32.4296 18.303C32.4296 17.6968 32.1887 17.1154 31.7601 16.6867C31.3314 16.2581 30.7501 16.0173 30.1439 16.0173C29.5376 16.0173 28.9563 16.2581 28.5276 16.6867C28.099 17.1154 27.8581 17.6968 27.8581 18.303C27.8581 18.9092 28.099 19.4906 28.5276 19.9192C28.9563 20.3479 29.5376 20.5887 30.1439 20.5887Z" fill="#1F1F1F"/>
</svg>
