<svg width="37" height="32" viewBox="0 0 37 32" fill="none" xmlns="http://www.w3.org/2000/svg">
<path d="M10.0858 6.09998L8.22154 11.4285H29.2072L27.3429 6.09998C27.0215 5.18569 26.1572 4.57141 25.1858 4.57141H12.2429C11.2715 4.57141 10.4072 5.18569 10.0858 6.09998ZM3.25727 11.7714L5.77155 4.59284C6.73583 1.84285 9.32867 0 12.2429 0H25.1858C28.1 0 30.6929 1.84285 31.6572 4.59284L34.1714 11.7714C35.8286 12.4571 37 14.0928 37 15.9999V29.7142C37 30.9784 35.9786 31.9999 34.7143 31.9999H32.4286C31.1643 31.9999 30.1429 30.9784 30.1429 29.7142V26.2856H7.28583V29.7142C7.28583 30.9784 6.2644 31.9999 5.00012 31.9999H2.71442C1.45014 31.9999 0.428711 30.9784 0.428711 29.7142V15.9999C0.428711 14.0928 1.60013 12.4571 3.25727 11.7714ZM9.57153 18.2856C9.57153 17.6794 9.33072 17.0981 8.90206 16.6694C8.47341 16.2408 7.89203 15.9999 7.28583 15.9999C6.67962 15.9999 6.09824 16.2408 5.66959 16.6694C5.24094 17.0981 5.00012 17.6794 5.00012 18.2856C5.00012 18.8918 5.24094 19.4732 5.66959 19.9019C6.09824 20.3305 6.67962 20.5713 7.28583 20.5713C7.89203 20.5713 8.47341 20.3305 8.90206 19.9019C9.33072 19.4732 9.57153 18.8918 9.57153 18.2856ZM30.1429 20.5713C30.7491 20.5713 31.3305 20.3305 31.7591 19.9019C32.1878 19.4732 32.4286 18.8918 32.4286 18.2856C32.4286 17.6794 32.1878 17.0981 31.7591 16.6694C31.3305 16.2408 30.7491 15.9999 30.1429 15.9999C29.5367 15.9999 28.9553 16.2408 28.5266 16.6694C28.098 17.0981 27.8572 17.6794 27.8572 18.2856C27.8572 18.8918 28.098 19.4732 28.5266 19.9019C28.9553 20.3305 29.5367 20.5713 30.1429 20.5713Z" fill="#FFCC50"/>
</svg>
