<svg width="33" height="32" viewBox="0 0 33 32" fill="none" xmlns="http://www.w3.org/2000/svg">
<path d="M29.7944 0H2.3667C1.76051 0 1.17914 0.240808 0.750503 0.669449C0.321863 1.09809 0.0810547 1.67945 0.0810547 2.28564V29.7133C0.0810547 30.3195 0.321863 30.9009 0.750503 31.3295C1.17914 31.7582 1.76051 31.999 2.3667 31.999H29.7944C30.4006 31.999 30.9819 31.7582 31.4106 31.3295C31.8392 30.9009 32.08 30.3195 32.08 29.7133V2.28564C32.08 1.67945 31.8392 1.09809 31.4106 0.669449C30.9819 0.240808 30.4006 0 29.7944 0ZM18.3662 3.42846H20.6518V6.85692H18.3662V3.42846ZM11.5093 3.42846H13.7949V6.85692H11.5093V3.42846ZM6.93798 28.5705H4.65234V25.1421H6.93798V28.5705ZM6.93798 6.85692H4.65234V3.42846H6.93798V6.85692ZM13.7949 28.5705H11.5093V25.1421H13.7949V28.5705ZM20.6518 28.5705H18.3662V25.1421H20.6518V28.5705ZM24.2631 16.9595L13.0978 21.9422C12.9241 22.0157 12.7349 22.0452 12.5471 22.0278C12.3592 22.0105 12.1786 21.9469 12.0213 21.8428C11.864 21.7387 11.735 21.5973 11.6456 21.4312C11.5563 21.265 11.5094 21.0794 11.5093 20.8908V10.9368C11.5097 10.7462 11.5577 10.5587 11.6491 10.3914C11.7405 10.2241 11.8722 10.0823 12.0324 9.97897C12.1925 9.87561 12.376 9.81394 12.5661 9.7996C12.7561 9.78525 12.9468 9.81868 13.1206 9.89683L24.2631 14.8567C24.4693 14.9445 24.6451 15.091 24.7686 15.2779C24.8922 15.4649 24.9581 15.684 24.9581 15.9081C24.9581 16.1321 24.8922 16.3513 24.7686 16.5382C24.6451 16.7252 24.4693 16.8716 24.2631 16.9595ZM27.5088 28.5705H25.2231V25.1421H27.5088V28.5705ZM27.5088 6.85692H25.2231V3.42846H27.5088V6.85692Z" fill="#FFCC50"/>
</svg>
