<svg width="20" height="33" viewBox="0 0 20 33" fill="none" xmlns="http://www.w3.org/2000/svg">
<path d="M11.5999 28.817C11.5999 28.267 11.404 27.7962 11.0124 27.4045C10.6207 27.0129 10.1499 26.817 9.59989 26.817C9.04989 26.817 8.57906 27.0129 8.1874 27.4045C7.79574 27.7962 7.59991 28.267 7.59991 28.817C7.59991 29.367 7.79574 29.8378 8.1874 30.2295C8.57906 30.6211 9.04989 30.817 9.59989 30.817C10.1499 30.817 10.6207 30.6211 11.0124 30.2295C11.404 29.8378 11.5999 29.367 11.5999 28.817ZM16.7998 24.817V7.21725C16.7998 7.00059 16.7206 6.81309 16.5623 6.65476C16.404 6.49643 16.2165 6.41726 15.9998 6.41726H3.19996C2.9833 6.41726 2.7958 6.49643 2.63747 6.65476C2.47914 6.81309 2.39997 7.00059 2.39997 7.21725V24.817C2.39997 25.0337 2.47914 25.2212 2.63747 25.3795C2.7958 25.5379 2.9833 25.617 3.19996 25.617H15.9998C16.2165 25.617 16.404 25.5379 16.5623 25.3795C16.7206 25.2212 16.7998 25.0337 16.7998 24.817ZM11.9999 3.61729C11.9999 3.35063 11.8665 3.2173 11.5999 3.2173H7.59991C7.33325 3.2173 7.19991 3.35063 7.19991 3.61729C7.19991 3.88396 7.33325 4.01729 7.59991 4.01729H11.5999C11.8665 4.01729 11.9999 3.88396 11.9999 3.61729ZM19.1998 3.2173V28.817C19.1998 29.6837 18.8831 30.4336 18.2498 31.067C17.6165 31.7003 16.8665 32.017 15.9998 32.017H3.19996C2.33331 32.017 1.58331 31.7003 0.949989 31.067C0.316663 30.4336 0 29.6837 0 28.817V3.2173C0 2.35064 0.316663 1.60065 0.949989 0.967323C1.58331 0.333997 2.33331 0.017334 3.19996 0.017334H15.9998C16.8665 0.017334 17.6165 0.333997 18.2498 0.967323C18.8831 1.60065 19.1998 2.35064 19.1998 3.2173Z" fill="#FFC350"/>
</svg>
