<svg width="33" height="33" viewBox="0 0 33 33" fill="none" xmlns="http://www.w3.org/2000/svg">
<path d="M30.0454 0.017334H2.61767C2.01148 0.017334 1.43012 0.258142 1.00148 0.686783C0.572839 1.11542 0.332031 1.69679 0.332031 2.30298V29.7307C0.332031 30.3369 0.572839 30.9182 1.00148 31.3469C1.43012 31.7755 2.01148 32.0163 2.61767 32.0163H30.0454C30.6516 32.0163 31.2329 31.7755 31.6616 31.3469C32.0902 30.9182 32.331 30.3369 32.331 29.7307V2.30298C32.331 1.69679 32.0902 1.11542 31.6616 0.686783C31.2329 0.258142 30.6516 0.017334 30.0454 0.017334ZM18.6172 3.4458H20.9028V6.87426H18.6172V3.4458ZM11.7602 3.4458H14.0459V6.87426H11.7602V3.4458ZM7.18896 28.5879H4.90331V25.1594H7.18896V28.5879ZM7.18896 6.87426H4.90331V3.4458H7.18896V6.87426ZM14.0459 28.5879H11.7602V25.1594H14.0459V28.5879ZM20.9028 28.5879H18.6172V25.1594H20.9028V28.5879ZM24.5141 16.9768L13.3488 21.9595C13.1751 22.0331 12.9859 22.0625 12.798 22.0452C12.6102 22.0278 12.4296 21.9643 12.2723 21.8602C12.115 21.756 11.9859 21.6146 11.8966 21.4485C11.8072 21.2824 11.7604 21.0967 11.7602 20.9081V10.9541C11.7606 10.7635 11.8087 10.576 11.9001 10.4087C11.9914 10.2414 12.1232 10.0997 12.2833 9.9963C12.4435 9.89294 12.627 9.83128 12.817 9.81693C13.0071 9.80259 13.1978 9.83601 13.3716 9.91416L24.5141 14.874C24.7203 14.9618 24.8961 15.1083 25.0196 15.2952C25.1432 15.4822 25.209 15.7013 25.209 15.9254C25.209 16.1495 25.1432 16.3686 25.0196 16.5555C24.8961 16.7425 24.7203 16.889 24.5141 16.9768ZM27.7597 28.5879H25.4741V25.1594H27.7597V28.5879ZM27.7597 6.87426H25.4741V3.4458H27.7597V6.87426Z" fill="#1F1F1F"/>
</svg>
