<svg width="20" height="32" viewBox="0 0 20 32" fill="none" xmlns="http://www.w3.org/2000/svg">
<path d="M11.5999 28.7997C11.5999 28.2497 11.404 27.7788 11.0124 27.3872C10.6207 26.9955 10.1499 26.7997 9.59989 26.7997C9.04989 26.7997 8.57906 26.9955 8.1874 27.3872C7.79574 27.7788 7.59991 28.2497 7.59991 28.7997C7.59991 29.3497 7.79574 29.8205 8.1874 30.2121C8.57906 30.6038 9.04989 30.7996 9.59989 30.7996C10.1499 30.7996 10.6207 30.6038 11.0124 30.2121C11.404 29.8205 11.5999 29.3497 11.5999 28.7997ZM16.7998 24.7997V7.19992C16.7998 6.98325 16.7206 6.79575 16.5623 6.63742C16.404 6.47909 16.2165 6.39993 15.9998 6.39993H3.19996C2.9833 6.39993 2.7958 6.47909 2.63747 6.63742C2.47914 6.79575 2.39997 6.98325 2.39997 7.19992V24.7997C2.39997 25.0164 2.47914 25.2039 2.63747 25.3622C2.7958 25.5205 2.9833 25.5997 3.19996 25.5997H15.9998C16.2165 25.5997 16.404 25.5205 16.5623 25.3622C16.7206 25.2039 16.7998 25.0164 16.7998 24.7997ZM11.9999 3.59996C11.9999 3.33329 11.8665 3.19996 11.5999 3.19996H7.59991C7.33325 3.19996 7.19991 3.33329 7.19991 3.59996C7.19991 3.86662 7.33325 3.99995 7.59991 3.99995H11.5999C11.8665 3.99995 11.9999 3.86662 11.9999 3.59996ZM19.1998 3.19996V28.7997C19.1998 29.6663 18.8831 30.4163 18.2498 31.0496C17.6165 31.683 16.8665 31.9996 15.9998 31.9996H3.19996C2.33331 31.9996 1.58331 31.683 0.949989 31.0496C0.316663 30.4163 0 29.6663 0 28.7997V3.19996C0 2.33331 0.316663 1.58331 0.949989 0.949989C1.58331 0.316663 2.33331 0 3.19996 0H15.9998C16.8665 0 17.6165 0.316663 18.2498 0.949989C18.8831 1.58331 19.1998 2.33331 19.1998 3.19996Z" fill="#FFCC50"/>
</svg>
