<svg width="40" height="33" viewBox="0 0 40 33" fill="none" xmlns="http://www.w3.org/2000/svg">
<path d="M5.06048 28.3548V14.8499L3.2293 16.2691C2.80203 16.5743 2.34423 16.6963 1.85592 16.6353C1.3676 16.5743 0.970848 16.3301 0.665651 15.9028C0.360454 15.4755 0.2457 15.0178 0.321389 14.5294C0.397078 14.0411 0.633911 13.6444 1.03189 13.3392L17.4667 0.749806C17.8024 0.505648 18.1614 0.322531 18.5435 0.200452C18.9256 0.0783731 19.3144 0.017334 19.7099 0.017334C20.1067 0.017334 20.4961 0.0783731 20.8782 0.200452C21.2603 0.322531 21.6186 0.505648 21.9531 0.749806L38.4337 13.3392C38.8305 13.6444 39.0594 14.0411 39.1204 14.5294C39.1815 15.0178 39.0594 15.4755 38.7542 15.9028C38.449 16.2996 38.0522 16.5285 37.5639 16.5895C37.0756 16.6506 36.6331 16.5285 36.2363 16.2233L34.3594 14.8499V28.3548C34.3594 29.362 34.0011 30.2245 33.2845 30.9423C32.5679 31.6601 31.7054 32.0184 30.697 32.0172H8.72284C7.71569 32.0172 6.85321 31.6583 6.13539 30.9405C5.41756 30.2227 5.05926 29.3608 5.06048 28.3548ZM12.3852 21.0301C12.904 21.0301 13.3392 20.8543 13.6908 20.5027C14.0424 20.1512 14.2176 19.7166 14.2164 19.1989C14.2164 18.6801 14.0406 18.2449 13.689 17.8933C13.3374 17.5417 12.9028 17.3665 12.3852 17.3678C11.8664 17.3678 11.4312 17.5436 11.0796 17.8951C10.728 18.2467 10.5528 18.6813 10.554 19.1989C10.554 19.7178 10.7298 20.153 11.0814 20.5046C11.433 20.8562 11.8676 21.0313 12.3852 21.0301ZM19.7099 21.0301C20.2288 21.0301 20.664 20.8543 21.0156 20.5027C21.3671 20.1512 21.5423 19.7166 21.5411 19.1989C21.5411 18.6801 21.3653 18.2449 21.0137 17.8933C20.6621 17.5417 20.2275 17.3665 19.7099 17.3678C19.1911 17.3678 18.7559 17.5436 18.4043 17.8951C18.0527 18.2467 17.8775 18.6813 17.8787 19.1989C17.8787 19.7178 18.0545 20.153 18.4061 20.5046C18.7577 20.8562 19.1923 21.0313 19.7099 21.0301ZM27.0346 21.0301C27.5535 21.0301 27.9887 20.8543 28.3403 20.5027C28.6919 20.1512 28.867 19.7166 28.8658 19.1989C28.8658 18.6801 28.69 18.2449 28.3384 17.8933C27.9869 17.5417 27.5523 17.3665 27.0346 17.3678C26.5158 17.3678 26.0806 17.5436 25.729 17.8951C25.3774 18.2467 25.2022 18.6813 25.2035 19.1989C25.2035 19.7178 25.3793 20.153 25.7308 20.5046C26.0824 20.8562 26.517 21.0313 27.0346 21.0301Z" fill="#1F1F1F"/>
</svg>
