<svg width="40" height="40" viewBox="0 0 40 40" fill="none" xmlns="http://www.w3.org/2000/svg">
<path fill-rule="evenodd" clip-rule="evenodd" d="M28 32C34.6274 32 40 26.6274 40 20C40 13.3726 34.6274 8 28 8C21.3726 8 16 13.3726 16 20C16 26.6274 21.3726 32 28 32ZM24.4545 20C24.4545 18.0429 26.0429 16.4545 28 16.4545C29.9571 16.4545 31.5455 18.0429 31.5455 20C31.5455 21.9571 29.9571 23.5455 28 23.5455C26.0429 23.5455 24.4545 21.9571 24.4545 20ZM22.3273 20.7091H20.9091C20.5191 20.7091 20.2 20.39 20.2 20C20.2 19.61 20.5191 19.2909 20.9091 19.2909H22.3273C22.7173 19.2909 23.0364 19.61 23.0364 20C23.0364 20.39 22.7173 20.7091 22.3273 20.7091ZM35.0909 20.7091H33.6727C33.2827 20.7091 32.9636 20.39 32.9636 20C32.9636 19.61 33.2827 19.2909 33.6727 19.2909H35.0909C35.4809 19.2909 35.8 19.61 35.8 20C35.8 20.39 35.4809 20.7091 35.0909 20.7091ZM27.2909 14.3273V12.9091C27.2909 12.5191 27.61 12.2 28 12.2C28.39 12.2 28.7091 12.5191 28.7091 12.9091V14.3273C28.7091 14.7173 28.39 15.0364 28 15.0364C27.61 15.0364 27.2909 14.7173 27.2909 14.3273ZM27.2909 27.0909V25.6727C27.2909 25.2827 27.61 24.9636 28 24.9636C28.39 24.9636 28.7091 25.2827 28.7091 25.6727V27.0909C28.7091 27.4809 28.39 27.8 28 27.8C27.61 27.8 27.2909 27.4809 27.2909 27.0909ZM23.5091 14.5851C23.5948 14.6207 23.6728 14.6728 23.7384 14.7385L24.49 15.4902C24.7665 15.7596 24.7595 16.2135 24.49 16.49C24.2205 16.7665 23.7667 16.7665 23.4902 16.49L22.7385 15.7384C22.6728 15.6728 22.6207 15.5948 22.5851 15.5091C22.5495 15.4233 22.5312 15.3313 22.5312 15.2385C22.5312 15.1456 22.5495 15.0536 22.5851 14.9678C22.6207 14.8821 22.6728 14.8041 22.7385 14.7385C22.8041 14.6728 22.8821 14.6207 22.9678 14.5851C23.0536 14.5495 23.1456 14.5312 23.2385 14.5312C23.3313 14.5312 23.4233 14.5495 23.5091 14.5851ZM32.2805 23.3565C32.3663 23.3921 32.4442 23.4443 32.5098 23.51L33.2615 24.2616C33.3272 24.3272 33.3793 24.4052 33.4149 24.4909C33.4505 24.5767 33.4688 24.6687 33.4688 24.7615C33.4688 24.8544 33.4505 24.9464 33.4149 25.0322C33.3793 25.1179 33.3272 25.1959 33.2615 25.2615C32.992 25.538 32.5382 25.538 32.2616 25.2615L31.51 24.5098C31.4443 24.4442 31.3921 24.3663 31.3565 24.2805C31.3209 24.1947 31.3026 24.1028 31.3026 24.0099C31.3026 23.917 31.3209 23.8251 31.3565 23.7393C31.3921 23.6535 31.4443 23.5756 31.51 23.51C31.5756 23.4443 31.6535 23.3921 31.7393 23.3565C31.8251 23.3209 31.917 23.3026 32.0099 23.3026C32.1028 23.3026 32.1947 23.3209 32.2805 23.3565ZM33.4149 15.5091C33.3793 15.5948 33.3272 15.6728 33.2615 15.7384L32.5098 16.49C32.2404 16.7665 31.7865 16.7595 31.51 16.49C31.2335 16.2205 31.2335 15.7667 31.51 15.4902L32.2616 14.7385C32.3272 14.6728 32.4052 14.6207 32.4909 14.5851C32.5767 14.5495 32.6687 14.5312 32.7615 14.5312C32.8544 14.5312 32.9464 14.5495 33.0322 14.5851C33.1179 14.6207 33.1959 14.6728 33.2615 14.7385C33.3272 14.8041 33.3793 14.8821 33.4149 14.9678C33.4505 15.0536 33.4688 15.1456 33.4688 15.2385C33.4688 15.3313 33.4505 15.4233 33.4149 15.5091ZM24.6435 24.2805C24.6079 24.3663 24.5557 24.4442 24.49 24.5098L23.7384 25.2615C23.4689 25.538 23.0151 25.5309 22.7385 25.2615C22.462 24.992 22.462 24.5382 22.7385 24.2616L23.4902 23.51C23.5558 23.4443 23.6337 23.3921 23.7195 23.3565C23.8053 23.3209 23.8972 23.3026 23.9901 23.3026C24.083 23.3026 24.1749 23.3209 24.2607 23.3565C24.3465 23.3921 24.4244 23.4443 24.49 23.51C24.5557 23.5756 24.6079 23.6535 24.6435 23.7393C24.6791 23.8251 24.6974 23.917 24.6974 24.0099C24.6974 24.1028 24.6791 24.1947 24.6435 24.2805Z" fill="#1F1F1F"/>
</svg>
