<svg width="24" height="25" viewBox="0 0 24 25" fill="none" xmlns="http://www.w3.org/2000/svg">
<path fill-rule="evenodd" clip-rule="evenodd" d="M12 24.0171C18.6274 24.0171 24 18.6445 24 12.0171C24 5.38967 18.6274 0.0170898 12 0.0170898C5.37258 0.0170898 0 5.38967 0 12.0171C0 18.6445 5.37258 24.0171 12 24.0171ZM8.45455 12.0171C8.45455 10.06 10.0429 8.47163 12 8.47163C13.9571 8.47163 15.5455 10.06 15.5455 12.0171C15.5455 13.9742 13.9571 15.5625 12 15.5625C10.0429 15.5625 8.45455 13.9742 8.45455 12.0171ZM6.32727 12.7262H4.90909C4.51909 12.7262 4.2 12.4071 4.2 12.0171C4.2 11.6271 4.51909 11.308 4.90909 11.308H6.32727C6.71727 11.308 7.03636 11.6271 7.03636 12.0171C7.03636 12.4071 6.71727 12.7262 6.32727 12.7262ZM19.0909 12.7262H17.6727C17.2827 12.7262 16.9636 12.4071 16.9636 12.0171C16.9636 11.6271 17.2827 11.308 17.6727 11.308H19.0909C19.4809 11.308 19.8 11.6271 19.8 12.0171C19.8 12.4071 19.4809 12.7262 19.0909 12.7262ZM11.2909 6.34436V4.92618C11.2909 4.53618 11.61 4.21709 12 4.21709C12.39 4.21709 12.7091 4.53618 12.7091 4.92618V6.34436C12.7091 6.73436 12.39 7.05345 12 7.05345C11.61 7.05345 11.2909 6.73436 11.2909 6.34436ZM11.2909 19.108V17.6898C11.2909 17.2998 11.61 16.9807 12 16.9807C12.39 16.9807 12.7091 17.2998 12.7091 17.6898V19.108C12.7091 19.498 12.39 19.8171 12 19.8171C11.61 19.8171 11.2909 19.498 11.2909 19.108ZM7.50906 6.60216C7.59484 6.63775 7.67276 6.6899 7.73836 6.75564L8.49 7.50727C8.76655 7.77673 8.75945 8.23054 8.49 8.50709C8.22055 8.78364 7.76673 8.78364 7.49018 8.50709L6.73855 7.75545C6.67281 7.68985 6.62066 7.61193 6.58507 7.52615C6.54949 7.44037 6.53118 7.34841 6.53118 7.25554C6.53118 7.16268 6.54949 7.07072 6.58507 6.98494C6.62066 6.89916 6.67281 6.82124 6.73855 6.75564C6.80415 6.6899 6.88207 6.63775 6.96785 6.60216C7.05363 6.56658 7.14559 6.54827 7.23845 6.54827C7.33132 6.54827 7.42328 6.56658 7.50906 6.60216ZM16.2805 15.3736C16.3663 15.4092 16.4442 15.4614 16.5098 15.5271L17.2615 16.2787C17.3272 16.3443 17.3793 16.4222 17.4149 16.508C17.4505 16.5938 17.4688 16.6858 17.4688 16.7786C17.4688 16.8715 17.4505 16.9635 17.4149 17.0492C17.3793 17.135 17.3272 17.2129 17.2615 17.2785C16.992 17.5551 16.5382 17.5551 16.2616 17.2785L15.51 16.5269C15.4443 16.4613 15.3921 16.3834 15.3565 16.2976C15.3209 16.2118 15.3026 16.1199 15.3026 16.027C15.3026 15.9341 15.3209 15.8422 15.3565 15.7564C15.3921 15.6706 15.4443 15.5927 15.51 15.5271C15.5756 15.4614 15.6535 15.4092 15.7393 15.3736C15.8251 15.338 15.917 15.3197 16.0099 15.3197C16.1028 15.3197 16.1947 15.338 16.2805 15.3736ZM17.4149 7.52615C17.3793 7.61193 17.3272 7.68985 17.2615 7.75545L16.5098 8.50709C16.2404 8.78364 15.7865 8.77654 15.51 8.50709C15.2335 8.23764 15.2335 7.78382 15.51 7.50727L16.2616 6.75564C16.3272 6.6899 16.4052 6.63775 16.4909 6.60216C16.5767 6.56658 16.6687 6.54827 16.7615 6.54827C16.8544 6.54827 16.9464 6.56658 17.0322 6.60216C17.1179 6.63775 17.1959 6.6899 17.2615 6.75564C17.3272 6.82124 17.3793 6.89916 17.4149 6.98494C17.4505 7.07072 17.4688 7.16268 17.4688 7.25554C17.4688 7.34841 17.4505 7.44037 17.4149 7.52615ZM8.64347 16.2976C8.60789 16.3834 8.55574 16.4613 8.49 16.5269L7.73836 17.2785C7.46891 17.5551 7.01509 17.548 6.73855 17.2785C6.462 17.0091 6.462 16.5553 6.73855 16.2787L7.49018 15.5271C7.55578 15.4614 7.6337 15.4092 7.71948 15.3736C7.80527 15.338 7.89722 15.3197 7.99009 15.3197C8.08296 15.3197 8.17492 15.338 8.2607 15.3736C8.34648 15.4092 8.4244 15.4614 8.49 15.5271C8.55574 15.5927 8.60789 15.6706 8.64347 15.7564C8.67905 15.8422 8.69737 15.9341 8.69737 16.027C8.69737 16.1199 8.67905 16.2118 8.64347 16.2976Z" fill="#1F1F1F"/>
</svg>
