<svg width="40" height="41" viewBox="0 0 40 41" fill="none" xmlns="http://www.w3.org/2000/svg">
<circle cx="20" cy="20.0173" r="20" fill="#F2F2F2"/>
<path fill-rule="evenodd" clip-rule="evenodd" d="M20 40.0173C31.0457 40.0173 40 31.063 40 20.0173C40 8.97164 31.0457 0.017334 20 0.017334C8.9543 0.017334 0 8.97164 0 20.0173C0 31.063 8.9543 40.0173 20 40.0173ZM15.6484 9.51206C16.8025 8.35799 18.3678 7.70964 19.9999 7.70964C21.632 7.70964 23.1972 8.35799 24.3513 9.51206C25.5054 10.6661 26.1537 12.2314 26.1537 13.8635C26.1537 15.4956 25.5054 17.0608 24.3513 18.2149C23.1972 19.369 21.632 20.0173 19.9999 20.0173C18.3678 20.0173 16.8025 19.369 15.6484 18.2149C14.4944 17.0608 13.846 15.4956 13.846 13.8635C13.846 12.2314 14.4944 10.6661 15.6484 9.51206ZM11.1399 21.7864C11.5147 21.6326 11.9162 21.5542 12.3214 21.5558H27.6922C28.5082 21.5558 29.2909 21.88 29.8679 22.457C30.4449 23.034 30.7691 23.8167 30.7691 24.6327C30.7691 27.2327 29.4876 29.1973 27.4845 30.4743C25.5122 31.7312 22.8537 32.325 19.9999 32.325C17.146 32.325 14.4876 31.7312 12.5153 30.4743C10.5122 29.1958 9.23064 27.2343 9.23064 24.6327C9.23084 24.2275 9.31102 23.8264 9.46659 23.4523C9.62216 23.0781 9.85005 22.7384 10.1372 22.4526C10.4243 22.1667 10.7651 21.9403 11.1399 21.7864Z" fill="#1F1F1F"/>
</svg>
