<svg width="40" height="40" viewBox="0 0 40 40" fill="none" xmlns="http://www.w3.org/2000/svg">
<circle cx="19.5" cy="19.5" r="16.5" fill="#F2F2F2"/>
<path fill-rule="evenodd" clip-rule="evenodd" d="M20 40C31.0457 40 40 31.0457 40 20C40 8.9543 31.0457 0 20 0C8.9543 0 0 8.9543 0 20C0 31.0457 8.9543 40 20 40ZM20.015 7.69231C20.3414 7.69231 20.6543 7.82193 20.8851 8.05266L31.9621 19.1297C32.1863 19.3618 32.3103 19.6727 32.3075 19.9954C32.3047 20.3181 32.1753 20.6268 31.9471 20.855C31.7189 21.0832 31.4102 21.2127 31.0875 21.2155C30.7648 21.2183 30.4539 21.0942 30.2218 20.87L29.8612 20.5094V28.6153C29.8612 29.5946 29.4721 30.5338 28.7797 31.2262C28.0873 31.9187 27.1481 32.3077 26.1688 32.3077H13.8612C12.8819 32.3077 11.9427 31.9187 11.2503 31.2262C10.5579 30.5338 10.1688 29.5946 10.1688 28.6153V20.5094L9.80823 20.87C9.69469 20.9876 9.55888 21.0813 9.40873 21.1459C9.25857 21.2104 9.09707 21.2443 8.93365 21.2457C8.77022 21.2471 8.60816 21.216 8.4569 21.1541C8.30564 21.0922 8.16823 21.0008 8.05266 20.8853C7.9371 20.7697 7.84572 20.6323 7.78383 20.481C7.72195 20.3298 7.69081 20.1677 7.69223 20.0043C7.69365 19.8409 7.7276 19.6794 7.7921 19.5292C7.85661 19.3791 7.95037 19.2432 8.06792 19.1297L19.1448 8.05266C19.3756 7.82193 19.6886 7.69231 20.015 7.69231Z" fill="#131313" fill-opacity="0.9"/>
</svg>
