<svg width="81" height="53" viewBox="0 0 81 53" fill="none" xmlns="http://www.w3.org/2000/svg">
<path fill-rule="evenodd" clip-rule="evenodd" d="M60.4078 20.047C60.4078 24.9178 58.6707 29.3829 55.7822 32.8565C50.6808 30.9745 47.0432 26.069 47.0432 20.314C47.0432 14.4334 50.8412 9.43982 56.1182 7.6526C58.8048 11.0636 60.4078 15.3681 60.4078 20.047ZM24.6036 7.65248C28.2744 2.99221 33.9682 0 40.3608 0C46.7535 0 52.4474 2.99227 56.1182 7.6526C57.4646 7.19658 58.9073 6.94931 60.4078 6.94931C65.3207 6.94931 69.6144 9.60018 71.9366 13.5496C69.0031 14.2555 66.8233 16.8965 66.8233 20.0467C66.8233 23.2917 69.1364 25.9965 72.2036 26.6023C69.9541 30.8133 65.5156 33.6786 60.4078 33.6786C58.7818 33.6786 57.2235 33.3882 55.7822 32.8565C52.1049 37.2786 46.5617 40.094 40.3608 40.094C34.16 40.094 28.6168 37.2787 24.9396 32.8566C30.0412 30.9747 33.6789 26.0691 33.6789 20.314C33.6789 14.4332 29.8807 9.43959 24.6036 7.65248ZM8.71099 13.6779C11.0151 9.65768 15.3484 6.94931 20.3143 6.94931C21.8146 6.94931 23.2572 7.19654 24.6036 7.65248C21.9168 11.0634 20.3139 15.368 20.3139 20.047C20.3139 24.9178 22.051 29.383 24.9396 32.8566C23.4983 33.3883 21.9402 33.6786 20.3143 33.6786C15.1614 33.6786 10.6895 30.7623 8.45929 26.4902C11.2873 25.712 13.3646 23.122 13.3646 20.0467C13.3646 17.0634 11.4097 14.5367 8.71099 13.6779ZM8.71099 13.6779C7.59033 15.6332 6.94966 17.8987 6.94966 20.314C6.94966 22.5421 7.49492 24.6429 8.45929 26.4902C7.89347 26.6459 7.2976 26.729 6.68232 26.729C2.99177 26.729 0 23.7373 0 20.0467C0 16.3562 2.99177 13.3644 6.68232 13.3644C7.38958 13.3644 8.07119 13.4743 8.71099 13.6779ZM72.2036 26.6023C72.6248 26.6854 73.0601 26.729 73.5056 26.729C77.1962 26.729 80.188 23.7373 80.188 20.0467C80.188 16.3562 77.1962 13.3644 73.5056 13.3644C72.9653 13.3644 72.4399 13.4285 71.9366 13.5496C73.1033 15.5338 73.7724 17.8457 73.7724 20.314C73.7724 22.5873 73.2048 24.7281 72.2036 26.6023Z" fill="#1F1F1F"/>
<path d="M0.95466 52.9191C0.663716 52.9191 0.43187 52.8381 0.259122 52.676C0.0863741 52.5049 0 52.2978 0 52.0546C0 51.9015 0.036368 51.7349 0.109104 51.5548L3.06855 44.2742C3.23221 43.878 3.42314 43.5898 3.64135 43.4097C3.85956 43.2296 4.16414 43.1396 4.55509 43.1396C4.94605 43.1396 5.25063 43.2296 5.46884 43.4097C5.69614 43.5898 5.89162 43.878 6.05527 44.2742L9.01472 51.5548C9.08746 51.7349 9.12383 51.9015 9.12383 52.0546C9.12383 52.2978 9.03291 52.5049 8.85107 52.676C8.67832 52.8381 8.44647 52.9191 8.15553 52.9191C7.93732 52.9191 7.75093 52.8696 7.59637 52.7705C7.4509 52.6625 7.33725 52.5004 7.25542 52.2842L4.18687 44.3148H4.88241L1.85477 52.2842C1.77294 52.5004 1.65474 52.6625 1.50018 52.7705C1.35471 52.8696 1.17287 52.9191 0.95466 52.9191ZM2.15481 49.1775H6.84628L7.47363 50.7174H1.55473L2.15481 49.1775Z" fill="#1F1F1F"/>
<path d="M14.2982 53.0002C13.7617 53.0002 13.2981 52.8741 12.9071 52.6219C12.5252 52.3698 12.2479 52.0591 12.0752 51.6899L12.0615 52.0681C12.0524 52.3203 11.9615 52.5274 11.7888 52.6895C11.6251 52.8426 11.4115 52.9191 11.1478 52.9191C10.875 52.9191 10.6523 52.8381 10.4795 52.676C10.3159 52.5049 10.234 52.2842 10.234 52.0141V43.5989C10.234 43.3107 10.3204 43.0811 10.4932 42.91C10.675 42.7389 10.9069 42.6533 11.1887 42.6533C11.4796 42.6533 11.7115 42.7389 11.8842 42.91C12.057 43.0811 12.1434 43.3107 12.1434 43.5989V46.8272C12.3616 46.476 12.6571 46.1968 13.0298 45.9897C13.4026 45.7826 13.8436 45.679 14.3527 45.679C14.9619 45.679 15.4892 45.8321 15.9347 46.1383C16.3893 46.4445 16.7394 46.8677 16.9849 47.408C17.2303 47.9483 17.3531 48.5607 17.3531 49.245V49.4206C17.3531 50.114 17.2258 50.7309 16.9712 51.2712C16.7257 51.8115 16.3711 52.2347 15.9075 52.5409C15.4438 52.8471 14.9073 53.0002 14.2982 53.0002ZM13.7663 51.5413C14.3118 51.5413 14.7209 51.3612 14.9937 51.001C15.2756 50.6318 15.4165 50.105 15.4165 49.4206V49.245C15.4165 48.5607 15.2756 48.0384 14.9937 47.6782C14.7209 47.3089 14.3118 47.1243 13.7663 47.1243C13.2208 47.1243 12.8025 47.3089 12.5116 47.6782C12.2297 48.0384 12.0888 48.5607 12.0888 49.245V49.4206C12.0888 50.105 12.2297 50.6318 12.5116 51.001C12.8025 51.3612 13.2208 51.5413 13.7663 51.5413Z" fill="#1F1F1F"/>
<path d="M22.128 53.0002C21.4097 53.0002 20.7778 52.8516 20.2323 52.5544C19.6959 52.2482 19.2776 51.825 18.9776 51.2847C18.6776 50.7444 18.5275 50.123 18.5275 49.4206V49.245C18.5275 48.5516 18.6776 47.9348 18.9776 47.3945C19.2776 46.8542 19.6959 46.4355 20.2323 46.1383C20.7778 45.8321 21.4097 45.679 22.128 45.679C22.8463 45.679 23.4781 45.8321 24.0237 46.1383C24.5692 46.4355 24.992 46.8542 25.292 47.3945C25.592 47.9348 25.7421 48.5516 25.7421 49.245V49.4206C25.7421 50.123 25.592 50.7444 25.292 51.2847C24.992 51.825 24.5692 52.2482 24.0237 52.5544C23.4781 52.8516 22.8463 53.0002 22.128 53.0002ZM22.128 51.5278C22.6917 51.5278 23.1099 51.3522 23.3827 51.001C23.6645 50.6408 23.8055 50.114 23.8055 49.4206V49.245C23.8055 48.5607 23.6645 48.0429 23.3827 47.6917C23.1099 47.3315 22.6917 47.1514 22.128 47.1514C21.5734 47.1514 21.1551 47.3315 20.8733 47.6917C20.6005 48.0429 20.4641 48.5607 20.4641 49.245V49.4206C20.4641 50.105 20.6005 50.6273 20.8733 50.9875C21.1551 51.3477 21.5734 51.5278 22.128 51.5278Z" fill="#1F1F1F"/>
<path d="M28.1627 52.9191C27.8808 52.9191 27.649 52.8336 27.4672 52.6625C27.2944 52.4914 27.208 52.2617 27.208 51.9736V46.6786C27.208 46.4084 27.2944 46.1878 27.4672 46.0167C27.6399 45.8456 27.8672 45.7601 28.1491 45.7601C28.4127 45.7601 28.6264 45.8366 28.79 45.9897C28.9537 46.1428 29.0492 46.3544 29.0764 46.6246L29.0901 46.9352C29.2901 46.575 29.5765 46.2779 29.9493 46.0437C30.322 45.8006 30.7812 45.679 31.3267 45.679C32.1632 45.679 32.7769 45.9177 33.1678 46.3949C33.5588 46.8632 33.7543 47.5116 33.7543 48.34V51.9871C33.7543 52.2662 33.6679 52.4914 33.4952 52.6625C33.3224 52.8336 33.0906 52.9191 32.7996 52.9191C32.5269 52.9191 32.2996 52.8336 32.1177 52.6625C31.945 52.4914 31.8586 52.2662 31.8586 51.9871V48.8128C31.8586 48.2815 31.7586 47.8808 31.5586 47.6106C31.3676 47.3405 31.0494 47.2054 30.6039 47.2054C30.1584 47.2054 29.7993 47.363 29.5265 47.6782C29.2537 47.9843 29.1174 48.4121 29.1174 48.9614V51.9736C29.1174 52.2617 29.031 52.4914 28.8582 52.6625C28.6855 52.8336 28.4536 52.9191 28.1627 52.9191Z" fill="#1F1F1F"/>
<path d="M36.41 52.9191C36.1281 52.9191 35.8963 52.8336 35.7144 52.6625C35.5417 52.4914 35.4553 52.2617 35.4553 51.9736V46.6786C35.4553 46.4084 35.5417 46.1878 35.7144 46.0167C35.8872 45.8456 36.1145 45.7601 36.3963 45.7601C36.66 45.7601 36.8737 45.8366 37.0373 45.9897C37.201 46.1428 37.2964 46.3544 37.3237 46.6246L37.3373 46.9352C37.5374 46.575 37.8238 46.2779 38.1965 46.0437C38.5693 45.8006 39.0285 45.679 39.574 45.679C40.4104 45.679 41.0242 45.9177 41.4151 46.3949C41.8061 46.8632 42.0015 47.5116 42.0015 48.34V51.9871C42.0015 52.2662 41.9152 52.4914 41.7424 52.6625C41.5697 52.8336 41.3378 52.9191 41.0469 52.9191C40.7741 52.9191 40.5468 52.8336 40.365 52.6625C40.1922 52.4914 40.1059 52.2662 40.1059 51.9871V48.8128C40.1059 48.2815 40.0058 47.8808 39.8058 47.6106C39.6149 47.3405 39.2967 47.2054 38.8512 47.2054C38.4057 47.2054 38.0465 47.363 37.7738 47.6782C37.501 47.9843 37.3646 48.4121 37.3646 48.9614V51.9736C37.3646 52.2617 37.2782 52.4914 37.1055 52.6625C36.9328 52.8336 36.7009 52.9191 36.41 52.9191Z" fill="#1F1F1F"/>
<path d="M47.153 53.0002C46.3711 53.0002 45.6983 52.8516 45.1346 52.5544C44.5799 52.2572 44.1526 51.8385 43.8526 51.2982C43.5525 50.7579 43.4025 50.132 43.4025 49.4206V49.245C43.4025 48.5426 43.548 47.9213 43.8389 47.381C44.139 46.8407 44.5618 46.4219 45.1073 46.1248C45.6528 45.8276 46.2892 45.679 47.0166 45.679C47.7894 45.679 48.4304 45.8456 48.9396 46.1788C49.4487 46.503 49.8169 46.9127 50.0442 47.408C50.2715 47.8943 50.3852 48.3851 50.3852 48.8803C50.3852 49.1775 50.3079 49.3981 50.1533 49.5422C50.0079 49.6773 49.7806 49.7448 49.4714 49.7448H45.2709V49.7583C45.3164 50.3707 45.4937 50.8254 45.8028 51.1226C46.1119 51.4198 46.5665 51.5683 47.1666 51.5683C47.4757 51.5683 47.7576 51.5233 48.0122 51.4333C48.2758 51.3342 48.5213 51.1856 48.7486 50.9875C48.8577 50.9065 48.9623 50.8254 49.0623 50.7444C49.1623 50.6723 49.2532 50.6183 49.3351 50.5823C49.426 50.5463 49.526 50.5283 49.6351 50.5283C49.8351 50.5283 49.9942 50.5913 50.1124 50.7174C50.2397 50.8434 50.3034 51.0055 50.3034 51.2036C50.3034 51.3747 50.2624 51.5233 50.1806 51.6494C50.0988 51.7755 49.967 51.9195 49.7851 52.0816C49.4851 52.3518 49.0941 52.5724 48.6122 52.7435C48.1304 52.9146 47.6439 53.0002 47.153 53.0002ZM48.5304 48.5967C48.4941 48.1194 48.344 47.7502 48.0804 47.489C47.8258 47.2189 47.4621 47.0838 46.9893 47.0838C46.4984 47.0838 46.1119 47.2099 45.8301 47.462C45.5573 47.7142 45.38 48.0924 45.2982 48.5967H48.5304Z" fill="#1F1F1F"/>
<path d="M52.7313 52.9191C52.4495 52.9191 52.2177 52.8336 52.0358 52.6625C51.8631 52.4914 51.7767 52.2617 51.7767 51.9736V46.6786C51.7767 46.4084 51.8631 46.1878 52.0358 46.0167C52.2086 45.8456 52.4359 45.7601 52.7177 45.7601C52.9814 45.7601 53.195 45.8366 53.3587 45.9897C53.5224 46.1428 53.6178 46.3544 53.6451 46.6246L53.6587 46.9352C53.8588 46.575 54.1452 46.2779 54.5179 46.0437C54.8907 45.8006 55.3498 45.679 55.8954 45.679C56.7318 45.679 57.3455 45.9177 57.7365 46.3949C58.1275 46.8632 58.3229 47.5116 58.3229 48.34V51.9871C58.3229 52.2662 58.2366 52.4914 58.0638 52.6625C57.8911 52.8336 57.6592 52.9191 57.3683 52.9191C57.0955 52.9191 56.8682 52.8336 56.6864 52.6625C56.5136 52.4914 56.4272 52.2662 56.4272 51.9871V48.8128C56.4272 48.2815 56.3272 47.8808 56.1272 47.6106C55.9363 47.3405 55.6181 47.2054 55.1726 47.2054C54.727 47.2054 54.3679 47.363 54.0952 47.6782C53.8224 47.9843 53.686 48.4121 53.686 48.9614V51.9736C53.686 52.2617 53.5996 52.4914 53.4269 52.6625C53.2541 52.8336 53.0223 52.9191 52.7313 52.9191Z" fill="#1F1F1F"/>
<path d="M63.0408 53.0002C62.2135 53.0002 61.5952 52.8155 61.1861 52.4463C60.786 52.0771 60.586 51.5323 60.586 50.8119V47.2324H59.8632C59.6541 47.2324 59.4859 47.1694 59.3586 47.0433C59.2313 46.9082 59.1676 46.7371 59.1676 46.53C59.1676 46.3229 59.2313 46.1608 59.3586 46.0437C59.4949 45.9177 59.6632 45.8546 59.8632 45.8546H60.586V44.4904C60.586 44.2112 60.6724 43.9861 60.8451 43.815C61.0179 43.6349 61.2497 43.5448 61.5407 43.5448C61.8225 43.5448 62.0498 43.6349 62.2226 43.815C62.4044 43.9861 62.4953 44.2112 62.4953 44.4904V45.8546H63.7227C63.9319 45.8546 64.0955 45.9177 64.2137 46.0437C64.341 46.1698 64.4046 46.3364 64.4046 46.5435C64.4046 46.7506 64.341 46.9172 64.2137 47.0433C64.0955 47.1694 63.9319 47.2324 63.7227 47.2324H62.4953V50.6498C62.4953 50.965 62.5635 51.1901 62.6999 51.3252C62.8454 51.4603 63.0908 51.5278 63.4363 51.5278C63.5273 51.5188 63.6182 51.5098 63.7091 51.5008C63.9455 51.4828 64.1273 51.5413 64.2546 51.6764C64.3819 51.8025 64.4455 51.9736 64.4455 52.1897C64.4455 52.4058 64.391 52.5724 64.2819 52.6895C64.1728 52.7975 64.0091 52.8786 63.7909 52.9326C63.6 52.9776 63.35 53.0002 63.0408 53.0002Z" fill="#1F1F1F"/>
<path d="M69.018 53.0002C68.2361 53.0002 67.5633 52.8516 66.9996 52.5544C66.445 52.2572 66.0176 51.8385 65.7176 51.2982C65.4176 50.7579 65.2676 50.132 65.2676 49.4206V49.245C65.2676 48.5426 65.413 47.9213 65.704 47.381C66.004 46.8407 66.4268 46.4219 66.9723 46.1248C67.5178 45.8276 68.1543 45.679 68.8816 45.679C69.6544 45.679 70.2954 45.8456 70.8046 46.1788C71.3137 46.503 71.682 46.9127 71.9093 47.408C72.1366 47.8943 72.2502 48.3851 72.2502 48.8803C72.2502 49.1775 72.1729 49.3981 72.0184 49.5422C71.8729 49.6773 71.6456 49.7448 71.3365 49.7448H67.136V49.7583C67.1814 50.3707 67.3587 50.8254 67.6678 51.1226C67.977 51.4198 68.4316 51.5683 69.0316 51.5683C69.3408 51.5683 69.6226 51.5233 69.8772 51.4333C70.1409 51.3342 70.3864 51.1856 70.6137 50.9875C70.7228 50.9065 70.8273 50.8254 70.9273 50.7444C71.0273 50.6723 71.1183 50.6183 71.2001 50.5823C71.291 50.5463 71.391 50.5283 71.5001 50.5283C71.7001 50.5283 71.8593 50.5913 71.9775 50.7174C72.1047 50.8434 72.1684 51.0055 72.1684 51.2036C72.1684 51.3747 72.1275 51.5233 72.0456 51.6494C71.9638 51.7755 71.832 51.9195 71.6501 52.0816C71.3501 52.3518 70.9591 52.5724 70.4773 52.7435C69.9954 52.9146 69.509 53.0002 69.018 53.0002ZM70.3954 48.5967C70.3591 48.1194 70.2091 47.7502 69.9454 47.489C69.6908 47.2189 69.3271 47.0838 68.8543 47.0838C68.3634 47.0838 67.977 47.2099 67.6951 47.462C67.4224 47.7142 67.2451 48.0924 67.1632 48.5967H70.3954Z" fill="#1F1F1F"/>
<path d="M74.5964 52.9191C74.3145 52.9191 74.0827 52.8336 73.9008 52.6625C73.7281 52.4914 73.6417 52.2617 73.6417 51.9736V46.6786C73.6417 46.4084 73.7281 46.1878 73.9008 46.0167C74.0736 45.8456 74.3009 45.7601 74.5827 45.7601C74.8464 45.7601 75.0601 45.8366 75.2237 45.9897C75.3874 46.1428 75.4828 46.3544 75.5101 46.6246L75.5238 46.9352C75.7238 46.575 76.0102 46.2779 76.383 46.0437C76.7557 45.8006 77.2149 45.679 77.7604 45.679C78.5969 45.679 79.2106 45.9177 79.6015 46.3949C79.9925 46.8632 80.188 47.5116 80.188 48.34V51.9871C80.188 52.2662 80.1016 52.4914 79.9288 52.6625C79.7561 52.8336 79.5242 52.9191 79.2333 52.9191C78.9605 52.9191 78.7332 52.8336 78.5514 52.6625C78.3787 52.4914 78.2923 52.2662 78.2923 51.9871V48.8128C78.2923 48.2815 78.1923 47.8808 77.9922 47.6106C77.8013 47.3405 77.4831 47.2054 77.0376 47.2054C76.5921 47.2054 76.2329 47.363 75.9602 47.6782C75.6874 47.9843 75.551 48.4121 75.551 48.9614V51.9736C75.551 52.2617 75.4647 52.4914 75.2919 52.6625C75.1192 52.8336 74.8873 52.9191 74.5964 52.9191Z" fill="#1F1F1F"/>
</svg>
