<svg width="40" height="40" viewBox="0 0 40 40" fill="none" xmlns="http://www.w3.org/2000/svg">
<circle cx="20" cy="20" r="20" fill="#F2F2F2"/>
<path fill-rule="evenodd" clip-rule="evenodd" d="M20 40C31.0457 40 40 31.0457 40 20C40 8.9543 31.0457 0 20 0C8.9543 0 0 8.9543 0 20C0 31.0457 8.9543 40 20 40ZM21.6786 18.2418H29.0212C29.0769 18.2418 29.1302 18.2649 29.1696 18.3061C29.2089 18.3473 29.231 18.4032 29.231 18.4615V28.7912C29.231 29.7238 28.8774 30.6183 28.2479 31.2777C27.6184 31.9372 26.7646 32.3077 25.8744 32.3077H14.1261C13.2359 32.3077 12.3821 31.9372 11.7526 31.2777C11.1231 30.6183 10.7695 29.7238 10.7695 28.7912V11.2088C10.7695 10.2762 11.1231 9.38173 11.7526 8.72226C12.3821 8.06279 13.2359 7.69231 14.1261 7.69231H18.9513C19.0069 7.69231 19.0603 7.71546 19.0996 7.75668C19.139 7.7979 19.1611 7.8538 19.1611 7.91209V15.6044C19.1611 16.3039 19.4263 16.9747 19.8984 17.4693C20.3705 17.9639 21.0109 18.2418 21.6786 18.2418ZM21.0182 8.39448L28.5607 16.2961C28.5753 16.3115 28.5852 16.331 28.5892 16.3523C28.5932 16.3735 28.5912 16.3956 28.5833 16.4156C28.5754 16.4356 28.562 16.4527 28.5448 16.4648C28.5276 16.4769 28.5075 16.4834 28.4868 16.4835H21.6786C21.456 16.4835 21.2425 16.3909 21.0852 16.226C20.9278 16.0611 20.8394 15.8375 20.8394 15.6044V8.47195C20.8395 8.45029 20.8457 8.42913 20.8572 8.41114C20.8687 8.39316 20.8851 8.37914 20.9042 8.37086C20.9233 8.36259 20.9443 8.36041 20.9646 8.36461C20.9849 8.36881 21.0036 8.37921 21.0182 8.39448Z" fill="#1F1F1F"/>
</svg>
