<svg xmlns="http://www.w3.org/2000/svg" width="81" height="53" fill="none"><path fill="#1F1F1F" fill-rule="evenodd" d="M60.408 20.047c0 4.87-1.737 9.336-4.626 12.81-5.101-1.883-8.739-6.788-8.739-12.543 0-5.88 3.798-10.874 9.075-12.661a19.962 19.962 0 0 1 4.29 12.394ZM24.604 7.652C28.274 2.992 33.968 0 40.36 0c6.393 0 12.086 2.992 15.757 7.653a13.348 13.348 0 0 1 4.29-.704c4.913 0 9.206 2.651 11.529 6.6a6.685 6.685 0 0 0 .267 13.053 13.362 13.362 0 0 1-11.796 7.077c-1.626 0-3.184-.29-4.626-.823-3.677 4.423-9.22 7.238-15.421 7.238-6.201 0-11.744-2.815-15.421-7.237 5.101-1.882 8.739-6.788 8.739-12.543 0-5.88-3.798-10.874-9.075-12.662ZM8.71 13.678a13.36 13.36 0 0 1 11.603-6.729c1.5 0 2.943.248 4.29.703a19.96 19.96 0 0 0-4.29 12.395c0 4.87 1.737 9.336 4.626 12.81-1.442.531-3 .822-4.626.822A13.363 13.363 0 0 1 8.46 26.49a6.685 6.685 0 0 0 .252-12.812Zm0 0a13.303 13.303 0 0 0-1.761 6.636c0 2.228.545 4.329 1.51 6.176a6.682 6.682 0 1 1 .252-12.812Zm63.493 12.924a6.682 6.682 0 1 0-.267-13.053 13.303 13.303 0 0 1 1.835 6.765c0 2.273-.567 4.414-1.568 6.288Z" clip-rule="evenodd"/><path fill="#1F1F1F" d="M.955 52.92c-.291 0-.523-.082-.696-.244A.842.842 0 0 1 0 52.055c0-.154.036-.32.11-.5l2.959-7.28c.163-.397.354-.685.572-.865.219-.18.523-.27.914-.27s.696.09.914.27c.227.18.423.468.586.864l2.96 7.28c.072.18.109.347.109.5 0 .244-.091.45-.273.622-.173.162-.405.243-.695.243-.219 0-.405-.05-.56-.148a1.047 1.047 0 0 1-.34-.487l-3.07-7.97h.696l-3.027 7.97c-.082.216-.2.379-.355.486a.947.947 0 0 1-.545.15Zm1.2-3.742h4.691l.628 1.54h-5.92l.6-1.54ZM14.298 53c-.536 0-1-.126-1.39-.378a2.265 2.265 0 0 1-.833-.932l-.013.378a.86.86 0 0 1-.273.622c-.164.153-.377.23-.641.23-.273 0-.496-.082-.668-.244a.919.919 0 0 1-.246-.662V43.6c0-.288.086-.518.26-.689a.974.974 0 0 1 .695-.257c.29 0 .522.086.695.257.173.171.26.4.26.689v3.228a2.39 2.39 0 0 1 .886-.837c.373-.207.814-.311 1.323-.311.609 0 1.136.153 1.582.46.454.305.804.729 1.05 1.269.245.54.368 1.153.368 1.837v.176c0 .693-.127 1.31-.382 1.85-.245.54-.6.964-1.063 1.27-.464.306-1 .46-1.61.46Zm-.532-1.459c.546 0 .955-.18 1.228-.54.282-.37.422-.896.422-1.58v-.176c0-.684-.14-1.207-.422-1.567-.273-.37-.682-.554-1.228-.554-.545 0-.963.185-1.254.554-.282.36-.423.883-.423 1.567v.176c0 .684.14 1.21.423 1.58.29.36.709.54 1.254.54ZM22.128 53c-.718 0-1.35-.148-1.896-.446a3.255 3.255 0 0 1-1.254-1.27c-.3-.54-.45-1.161-.45-1.863v-.176c0-.693.15-1.31.45-1.85.3-.54.718-.96 1.254-1.257.546-.306 1.178-.459 1.896-.459s1.35.153 1.896.46a3.14 3.14 0 0 1 1.268 1.255c.3.54.45 1.158.45 1.851v.176c0 .702-.15 1.323-.45 1.864-.3.54-.723.963-1.268 1.27-.546.297-1.178.445-1.896.445Zm0-1.472c.564 0 .982-.176 1.255-.527.282-.36.422-.887.422-1.58v-.176c0-.684-.14-1.202-.422-1.553-.273-.36-.691-.54-1.255-.54-.555 0-.973.18-1.255.54-.273.35-.409.869-.409 1.553v.176c0 .684.137 1.206.41 1.566.281.36.7.54 1.254.54ZM28.163 52.92a.974.974 0 0 1-.696-.258c-.173-.17-.259-.4-.259-.688v-5.295c0-.27.086-.491.26-.662.172-.171.4-.257.681-.257.264 0 .477.077.641.23.164.153.26.364.286.635l.014.31c.2-.36.486-.657.86-.891.372-.243.831-.365 1.377-.365.836 0 1.45.239 1.84.716.392.468.587 1.117.587 1.945v3.647c0 .28-.086.504-.259.675-.173.172-.404.257-.695.257a.956.956 0 0 1-.682-.256c-.173-.172-.26-.397-.26-.676v-3.174c0-.532-.1-.932-.3-1.202-.19-.27-.509-.406-.954-.406-.446 0-.805.158-1.078.473-.272.306-.409.734-.409 1.283v3.013c0 .288-.086.517-.259.689-.172.17-.404.256-.695.256ZM36.41 52.92a.975.975 0 0 1-.696-.258c-.172-.17-.259-.4-.259-.688v-5.295c0-.27.087-.491.26-.662.172-.171.4-.257.681-.257.264 0 .478.077.641.23.164.153.26.364.287.635l.013.31c.2-.36.487-.657.86-.891.372-.243.831-.365 1.377-.365.836 0 1.45.239 1.841.716.391.468.587 1.117.587 1.945v3.647c0 .28-.087.504-.26.675-.172.172-.404.257-.695.257a.956.956 0 0 1-.682-.256c-.173-.172-.26-.397-.26-.676v-3.174c0-.532-.1-.932-.3-1.202-.19-.27-.508-.406-.954-.406-.445 0-.804.158-1.077.473-.273.306-.41.734-.41 1.283v3.013c0 .288-.086.517-.258.689-.173.17-.405.256-.696.256ZM47.153 53c-.782 0-1.455-.148-2.018-.446a3.118 3.118 0 0 1-1.282-1.256c-.3-.54-.45-1.166-.45-1.877v-.176c0-.702.145-1.324.436-1.864.3-.54.723-.96 1.268-1.256.546-.297 1.182-.446 1.91-.446.772 0 1.413.167 1.923.5.509.324.877.734 1.104 1.229.228.486.341.977.341 1.472 0 .297-.077.518-.232.662-.145.135-.372.203-.682.203h-4.2v.013c.045.613.223 1.067.532 1.365.309.297.764.445 1.364.445.309 0 .59-.045.845-.135.264-.099.51-.247.737-.446.109-.08.213-.162.313-.243.1-.072.191-.126.273-.162a.808.808 0 0 1 .3-.054c.2 0 .36.063.477.19a.655.655 0 0 1 .191.486.8.8 0 0 1-.122.445c-.082.127-.214.27-.396.433-.3.27-.69.49-1.173.661a4.333 4.333 0 0 1-1.459.257Zm1.377-4.403c-.036-.478-.186-.847-.45-1.108-.254-.27-.618-.405-1.09-.405-.492 0-.878.126-1.16.378-.273.252-.45.63-.532 1.135h3.232ZM52.731 52.92a.974.974 0 0 1-.695-.258c-.173-.17-.26-.4-.26-.688v-5.295c0-.27.087-.491.26-.662.173-.171.4-.257.682-.257.263 0 .477.077.64.23.164.153.26.364.287.635l.014.31c.2-.36.486-.657.859-.891.373-.243.832-.365 1.377-.365.837 0 1.45.239 1.841.716.392.468.587 1.117.587 1.945v3.647c0 .28-.086.504-.26.675-.172.172-.404.257-.695.257a.956.956 0 0 1-.682-.256c-.172-.172-.259-.397-.259-.676v-3.174c0-.532-.1-.932-.3-1.202-.19-.27-.509-.406-.954-.406-.446 0-.805.158-1.078.473-.273.306-.409.734-.409 1.283v3.013c0 .288-.086.517-.26.689-.172.17-.404.256-.695.256ZM63.04 53c-.826 0-1.445-.184-1.854-.554-.4-.369-.6-.914-.6-1.634v-3.58h-.723a.686.686 0 0 1-.504-.189.719.719 0 0 1-.191-.513c0-.207.063-.37.19-.486a.716.716 0 0 1 .505-.19h.723V44.49c0-.279.086-.504.26-.675.172-.18.404-.27.695-.27.282 0 .509.09.682.27.181.171.272.396.272.675v1.365h1.228c.209 0 .373.063.49.189.128.126.192.292.192.5a.672.672 0 0 1-.191.5c-.118.125-.282.188-.491.188h-1.228v3.418c0 .315.069.54.205.675.145.135.39.203.736.203l.273-.027c.236-.018.418.04.546.175.127.127.19.298.19.514 0 .216-.054.382-.163.5-.11.108-.273.189-.491.243-.191.045-.441.067-.75.067ZM69.018 53c-.782 0-1.455-.148-2.018-.446a3.118 3.118 0 0 1-1.282-1.256c-.3-.54-.45-1.166-.45-1.877v-.176c0-.702.145-1.324.436-1.864.3-.54.723-.96 1.268-1.256.546-.297 1.182-.446 1.91-.446.772 0 1.413.167 1.923.5.509.324.877.734 1.104 1.229.228.486.341.977.341 1.472 0 .297-.077.518-.232.662-.145.135-.372.203-.681.203h-4.201v.013c.045.613.223 1.067.532 1.365.309.297.764.445 1.364.445.309 0 .59-.045.845-.135.264-.099.51-.247.737-.446.109-.08.213-.162.313-.243.1-.072.191-.126.273-.162a.808.808 0 0 1 .3-.054c.2 0 .36.063.478.19.127.125.19.287.19.486a.8.8 0 0 1-.122.445c-.082.127-.214.27-.396.433-.3.27-.69.49-1.173.661a4.334 4.334 0 0 1-1.459.257Zm1.377-4.403c-.036-.478-.186-.847-.45-1.108-.254-.27-.618-.405-1.09-.405-.492 0-.878.126-1.16.378-.273.252-.45.63-.532 1.135h3.232ZM74.596 52.92a.975.975 0 0 1-.695-.258c-.173-.17-.26-.4-.26-.688v-5.295c0-.27.087-.491.26-.662.173-.171.4-.257.682-.257.263 0 .477.077.64.23.164.153.26.364.287.635l.014.31c.2-.36.486-.657.859-.891.373-.243.832-.365 1.377-.365.837 0 1.45.239 1.841.716.392.468.587 1.117.587 1.945v3.647c0 .28-.086.504-.26.675-.172.172-.404.257-.695.257a.956.956 0 0 1-.682-.256c-.172-.172-.259-.397-.259-.676v-3.174c0-.532-.1-.932-.3-1.202-.19-.27-.509-.406-.954-.406-.446 0-.805.158-1.078.473-.273.306-.409.734-.409 1.283v3.013c0 .288-.086.517-.26.689-.172.17-.404.256-.695.256Z"/></svg>