<svg width="40" height="40" viewBox="0 0 40 40" fill="none" xmlns="http://www.w3.org/2000/svg">
<path fill-rule="evenodd" clip-rule="evenodd" d="M20 39.9999C31.0457 39.9999 40 31.0456 40 19.9999C40 9.58406 32.0378 1.02789 21.8679 0.0859852C21.2493 0.0295583 20.6262 0.000661156 20.0001 0C19.8507 0 19.7013 0.00161226 19.5522 0.00482935C8.71329 0.242957 0 9.10389 0 19.9999C0 31.0456 8.9543 39.9999 20 39.9999ZM18.6687 33.1464C19.0628 33.4097 19.5261 33.5503 20.0001 33.5503C20.6357 33.5503 21.2452 33.2978 21.6947 32.8484C22.1441 32.399 22.3966 31.7894 22.3966 31.1538C22.3966 30.6799 22.256 30.2165 21.9927 29.8224C21.7294 29.4284 21.3551 29.1212 20.9172 28.9398C20.4793 28.7584 19.9975 28.711 19.5326 28.8034C19.0677 28.8959 18.6407 29.1241 18.3056 29.4593C17.9704 29.7944 17.7422 30.2215 17.6497 30.6863C17.5572 31.1512 17.6047 31.633 17.7861 32.0709C17.9675 32.5088 18.2746 32.8831 18.6687 33.1464ZM21.5977 23.9645V23.8207C25.2403 23.1517 27.9883 20.246 27.9883 16.7751C27.9883 12.811 24.4056 9.5858 20.0001 9.5858C15.5946 9.5858 12.0119 12.811 12.0119 16.7751V17.574C12.0119 17.9977 12.1803 18.404 12.4799 18.7037C12.7795 19.0033 13.1859 19.1716 13.6096 19.1716C14.0333 19.1716 14.4397 19.0033 14.7393 18.7037C15.0389 18.404 15.2072 17.9977 15.2072 17.574V16.7751C15.2072 14.5784 17.358 12.7811 20.0001 12.7811C22.6422 12.7811 24.793 14.5784 24.793 16.7751C24.793 18.9719 22.6422 20.7692 20.0001 20.7692C19.5764 20.7692 19.17 20.9375 18.8704 21.2372C18.5708 21.5368 18.4025 21.9431 18.4025 22.3669V23.9645C18.4025 24.3882 18.5708 24.7946 18.8704 25.0942C19.17 25.3938 19.5764 25.5621 20.0001 25.5621C20.4238 25.5621 20.8302 25.3938 21.1298 25.0942C21.4294 24.7946 21.5977 24.3882 21.5977 23.9645Z" fill="#131313" fill-opacity="0.9"/>
</svg>
