<svg width="80" height="46" viewBox="0 0 80 46" fill="none" xmlns="http://www.w3.org/2000/svg">
<path d="M54.7199 15.9999C54.7199 24.1295 48.1296 30.7199 39.9999 30.7199C31.8703 30.7199 25.28 24.1295 25.28 15.9999C25.28 7.87034 31.8703 1.28 39.9999 1.28C48.1296 1.28 54.7199 7.87034 54.7199 15.9999ZM11.488 26.7412C10.1466 24.0584 9.27999 20.2626 9.27999 15.9999C9.27999 11.7373 10.1466 7.94149 11.488 5.25871C12.8677 2.49936 14.5369 1.28 16 1.28C17.4631 1.28 19.1323 2.49936 20.512 5.25871C21.8534 7.9415 22.72 11.7373 22.72 15.9999C22.72 20.2626 21.8534 24.0584 20.512 26.7412C19.1323 29.5005 17.4631 30.7199 16 30.7199C14.5369 30.7199 12.8677 29.5005 11.488 26.7412ZM74.4133 27.0032C73.7215 24.2359 73.2799 20.3451 73.2799 15.9999C73.2799 11.6548 73.7215 7.76401 74.4133 4.99672C74.7617 3.60323 75.1562 2.56634 75.5449 1.90866C75.7605 1.54387 75.9174 1.38571 76 1.31924C76.0826 1.38571 76.2394 1.54387 76.455 1.90865C76.8438 2.56634 77.2382 3.60323 77.5866 4.99672C78.2784 7.76401 78.72 11.6548 78.72 15.9999C78.72 20.3451 78.2784 24.2359 77.5866 27.0032C77.2382 28.3966 76.8438 29.4335 76.455 30.0912C76.2394 30.456 76.0826 30.6142 76 30.6806C75.9174 30.6142 75.7605 30.456 75.5449 30.0912C75.1562 29.4335 74.7617 28.3966 74.4133 27.0032ZM59.4879 26.7412C58.1465 24.0584 57.2799 20.2626 57.2799 15.9999C57.2799 11.7373 58.1465 7.9415 59.4879 5.25871C60.8676 2.49936 62.5368 1.28 64 1.28C65.4631 1.28 67.1323 2.49936 68.5119 5.25871C69.8533 7.94149 70.7199 11.7373 70.7199 15.9999C70.7199 20.2626 69.8533 24.0584 68.5119 26.7412C67.1323 29.5005 65.4631 30.7199 64 30.7199C62.5368 30.7199 60.8676 29.5005 59.4879 26.7412ZM6.72 15.9999C6.72 20.3451 6.27847 24.2359 5.58664 27.0032C5.23826 28.3966 4.8438 29.4335 4.45506 30.0912C4.23945 30.456 4.0826 30.6142 3.99999 30.6806C3.91739 30.6142 3.76053 30.456 3.54492 30.0912C3.15618 29.4335 2.76172 28.3966 2.41335 27.0032C1.72152 24.2359 1.28 20.3451 1.28 15.9999C1.28 11.6548 1.72152 7.76401 2.41335 4.99672C2.76172 3.60323 3.15618 2.56634 3.54492 1.90865C3.76053 1.54386 3.91738 1.38571 3.99999 1.31923C4.08259 1.38571 4.23944 1.54386 4.45506 1.90866C4.8438 2.56634 5.23826 3.60323 5.58664 4.99672C6.27847 7.76401 6.72 11.6548 6.72 15.9999Z" fill="#1F1F1F" stroke="#1F1F1F" stroke-width="2.55999"/>
<path d="M0.952423 44.9356C0.662161 44.9356 0.430858 44.854 0.258515 44.6907C0.0861716 44.5183 0 44.3097 0 44.0648C0 43.9106 0.0362828 43.7428 0.108848 43.5614L3.06136 36.2277C3.22463 35.8286 3.41512 35.5383 3.63281 35.3569C3.85051 35.1755 4.15438 35.0848 4.54442 35.0848C4.93446 35.0848 5.23833 35.1755 5.45602 35.3569C5.68279 35.5383 5.87781 35.8286 6.04108 36.2277L8.99359 43.5614C9.06616 43.7428 9.10244 43.9106 9.10244 44.0648C9.10244 44.3097 9.01173 44.5183 8.83032 44.6907C8.65798 44.854 8.42667 44.9356 8.13641 44.9356C7.91871 44.9356 7.73277 44.8857 7.57856 44.7859C7.43343 44.6771 7.32005 44.5138 7.23841 44.2961L4.17705 36.2685H4.87096L1.85042 44.2961C1.76879 44.5138 1.65087 44.6771 1.49666 44.7859C1.35153 44.8857 1.17012 44.9356 0.952423 44.9356ZM2.14975 41.1667H6.83023L7.45611 42.7178H1.55109L2.14975 41.1667Z" fill="#1F1F1F"/>
<path d="M14.2647 45.0172C13.7295 45.0172 13.2669 44.8902 12.8768 44.6363C12.4959 44.3823 12.2192 44.0693 12.0469 43.6974L12.0333 44.0784C12.0242 44.3324 11.9335 44.541 11.7611 44.7043C11.5979 44.8585 11.3847 44.9356 11.1217 44.9356C10.8495 44.9356 10.6273 44.854 10.455 44.6907C10.2917 44.5183 10.2101 44.2961 10.2101 44.024V35.5474C10.2101 35.2571 10.2962 35.0258 10.4686 34.8535C10.65 34.6811 10.8813 34.595 11.1625 34.595C11.4527 34.595 11.684 34.6811 11.8564 34.8535C12.0287 35.0258 12.1149 35.2571 12.1149 35.5474V38.7992C12.3326 38.4455 12.6274 38.1643 12.9993 37.9557C13.3712 37.747 13.8111 37.6427 14.3191 37.6427C14.9268 37.6427 15.4529 37.7969 15.8974 38.1053C16.3509 38.4137 16.7001 38.8401 16.945 39.3843C17.19 39.9286 17.3124 40.5454 17.3124 41.2347V41.4116C17.3124 42.1101 17.1854 42.7314 16.9314 43.2757C16.6865 43.8199 16.3328 44.2462 15.8702 44.5546C15.4076 44.863 14.8724 45.0172 14.2647 45.0172ZM13.734 43.5478C14.2783 43.5478 14.6864 43.3664 14.9586 43.0035C15.2398 42.6316 15.3804 42.101 15.3804 41.4116V41.2347C15.3804 40.5454 15.2398 40.0193 14.9586 39.6564C14.6864 39.2845 14.2783 39.0986 13.734 39.0986C13.1898 39.0986 12.7725 39.2845 12.4823 39.6564C12.2011 40.0193 12.0605 40.5454 12.0605 41.2347V41.4116C12.0605 42.101 12.2011 42.6316 12.4823 43.0035C12.7725 43.3664 13.1898 43.5478 13.734 43.5478Z" fill="#1F1F1F"/>
<path d="M22.0761 45.0172C21.3595 45.0172 20.7291 44.8676 20.1849 44.5682C19.6497 44.2598 19.2325 43.8335 18.9331 43.2893C18.6338 42.745 18.4841 42.1191 18.4841 41.4116V41.2347C18.4841 40.5363 18.6338 39.9149 18.9331 39.3707C19.2325 38.8265 19.6497 38.4047 20.1849 38.1053C20.7291 37.7969 21.3595 37.6427 22.0761 37.6427C22.7927 37.6427 23.4231 37.7969 23.9674 38.1053C24.5116 38.4047 24.9334 38.8265 25.2327 39.3707C25.5321 39.9149 25.6817 40.5363 25.6817 41.2347V41.4116C25.6817 42.1191 25.5321 42.745 25.2327 43.2893C24.9334 43.8335 24.5116 44.2598 23.9674 44.5682C23.4231 44.8676 22.7927 45.0172 22.0761 45.0172ZM22.0761 43.5342C22.6385 43.5342 23.0558 43.3573 23.3279 43.0035C23.6091 42.6407 23.7497 42.1101 23.7497 41.4116V41.2347C23.7497 40.5454 23.6091 40.0238 23.3279 39.67C23.0558 39.3072 22.6385 39.1258 22.0761 39.1258C21.5228 39.1258 21.1056 39.3072 20.8244 39.67C20.5522 40.0238 20.4162 40.5454 20.4162 41.2347V41.4116C20.4162 42.101 20.5522 42.6271 20.8244 42.9899C21.1056 43.3528 21.5228 43.5342 22.0761 43.5342Z" fill="#1F1F1F"/>
<path d="M28.0967 44.9356C27.8155 44.9356 27.5842 44.8494 27.4028 44.6771C27.2304 44.5047 27.1443 44.2734 27.1443 43.9832V38.6496C27.1443 38.3775 27.2304 38.1552 27.4028 37.9829C27.5751 37.8105 27.8019 37.7244 28.0831 37.7244C28.3461 37.7244 28.5593 37.8015 28.7226 37.9557C28.8858 38.1099 28.9811 38.323 29.0083 38.5952L29.0219 38.9081C29.2214 38.5453 29.5072 38.2459 29.8791 38.0101C30.251 37.7652 30.709 37.6427 31.2533 37.6427C32.0878 37.6427 32.7001 37.8831 33.0901 38.3639C33.4801 38.8355 33.6752 39.4886 33.6752 40.3231V43.9968C33.6752 44.278 33.589 44.5047 33.4166 44.6771C33.2443 44.8494 33.013 44.9356 32.7227 44.9356C32.4506 44.9356 32.2238 44.8494 32.0424 44.6771C31.8701 44.5047 31.7839 44.278 31.7839 43.9968V40.7993C31.7839 40.2642 31.6841 39.8605 31.4846 39.5884C31.2941 39.3163 30.9766 39.1802 30.5322 39.1802C30.0877 39.1802 29.7294 39.339 29.4573 39.6564C29.1852 39.9648 29.0491 40.3957 29.0491 40.949V43.9832C29.0491 44.2734 28.9629 44.5047 28.7906 44.6771C28.6182 44.8494 28.3869 44.9356 28.0967 44.9356Z" fill="#1F1F1F"/>
<path d="M36.3246 44.9356C36.0434 44.9356 35.8121 44.8494 35.6307 44.6771C35.4584 44.5047 35.3722 44.2734 35.3722 43.9832V38.6496C35.3722 38.3775 35.4584 38.1552 35.6307 37.9829C35.803 37.8105 36.0298 37.7244 36.311 37.7244C36.5741 37.7244 36.7872 37.8015 36.9505 37.9557C37.1138 38.1099 37.209 38.323 37.2362 38.5952L37.2498 38.9081C37.4494 38.5453 37.7351 38.2459 38.107 38.0101C38.4789 37.7652 38.937 37.6427 39.4812 37.6427C40.3157 37.6427 40.928 37.8831 41.318 38.3639C41.7081 38.8355 41.9031 39.4886 41.9031 40.3231V43.9968C41.9031 44.278 41.8169 44.5047 41.6446 44.6771C41.4722 44.8494 41.2409 44.9356 40.9507 44.9356C40.6785 44.9356 40.4518 44.8494 40.2704 44.6771C40.098 44.5047 40.0119 44.278 40.0119 43.9968V40.7993C40.0119 40.2642 39.9121 39.8605 39.7125 39.5884C39.522 39.3163 39.2046 39.1802 38.7601 39.1802C38.3156 39.1802 37.9573 39.339 37.6852 39.6564C37.4131 39.9648 37.277 40.3957 37.277 40.949V43.9832C37.277 44.2734 37.1909 44.5047 37.0185 44.6771C36.8462 44.8494 36.6149 44.9356 36.3246 44.9356Z" fill="#1F1F1F"/>
<path d="M47.0425 45.0172C46.2624 45.0172 45.5911 44.8676 45.0288 44.5682C44.4754 44.2689 44.0491 43.8471 43.7498 43.3029C43.4505 42.7586 43.3008 42.1282 43.3008 41.4116V41.2347C43.3008 40.5272 43.4459 39.9013 43.7362 39.3571C44.0355 38.8129 44.4573 38.3911 45.0016 38.0917C45.5458 37.7924 46.1807 37.6427 46.9064 37.6427C47.6774 37.6427 48.3169 37.8105 48.8248 38.1462C49.3328 38.4727 49.7002 38.8854 49.9269 39.3843C50.1537 39.8741 50.2671 40.3685 50.2671 40.8674C50.2671 41.1667 50.19 41.3889 50.0358 41.5341C49.8907 41.6701 49.6639 41.7382 49.3555 41.7382H45.1648V41.7518C45.2102 42.3686 45.3871 42.8266 45.6955 43.126C46.0039 43.4253 46.4574 43.575 47.0561 43.575C47.3645 43.575 47.6457 43.5296 47.8996 43.4389C48.1627 43.3391 48.4076 43.1895 48.6344 42.9899C48.7432 42.9083 48.8475 42.8266 48.9473 42.745C49.0471 42.6724 49.1378 42.618 49.2194 42.5817C49.3101 42.5455 49.4099 42.5273 49.5188 42.5273C49.7183 42.5273 49.877 42.5908 49.995 42.7178C50.122 42.8448 50.1854 43.0081 50.1854 43.2076C50.1854 43.38 50.1446 43.5296 50.063 43.6566C49.9814 43.7836 49.8498 43.9287 49.6684 44.092C49.3691 44.3641 48.979 44.5864 48.4983 44.7587C48.0176 44.9311 47.5323 45.0172 47.0425 45.0172ZM48.4167 40.5816C48.3804 40.1009 48.2307 39.729 47.9677 39.4659C47.7137 39.1938 47.3509 39.0578 46.8792 39.0578C46.3894 39.0578 46.0039 39.1848 45.7227 39.4387C45.4505 39.6927 45.2737 40.0737 45.192 40.5816H48.4167Z" fill="#1F1F1F"/>
<path d="M52.6077 44.9356C52.3266 44.9356 52.0953 44.8494 51.9138 44.6771C51.7415 44.5047 51.6553 44.2734 51.6553 43.9832V38.6496C51.6553 38.3775 51.7415 38.1552 51.9138 37.9829C52.0862 37.8105 52.313 37.7244 52.5941 37.7244C52.8572 37.7244 53.0704 37.8015 53.2336 37.9557C53.3969 38.1099 53.4921 38.323 53.5194 38.5952L53.533 38.9081C53.7325 38.5453 54.0182 38.2459 54.3901 38.0101C54.762 37.7652 55.2201 37.6427 55.7643 37.6427C56.5989 37.6427 57.2111 37.8831 57.6012 38.3639C57.9912 38.8355 58.1862 39.4886 58.1862 40.3231V43.9968C58.1862 44.278 58.1001 44.5047 57.9277 44.6771C57.7554 44.8494 57.5241 44.9356 57.2338 44.9356C56.9617 44.9356 56.7349 44.8494 56.5535 44.6771C56.3812 44.5047 56.295 44.278 56.295 43.9968V40.7993C56.295 40.2642 56.1952 39.8605 55.9957 39.5884C55.8052 39.3163 55.4877 39.1802 55.0432 39.1802C54.5988 39.1802 54.2405 39.339 53.9684 39.6564C53.6962 39.9648 53.5602 40.3957 53.5602 40.949V43.9832C53.5602 44.2734 53.474 44.5047 53.3017 44.6771C53.1293 44.8494 52.898 44.9356 52.6077 44.9356Z" fill="#1F1F1F"/>
<path d="M62.8931 45.0172C62.0676 45.0172 61.4508 44.8313 61.0426 44.4594C60.6435 44.0875 60.444 43.5387 60.444 42.813V39.2074H59.7229C59.5142 39.2074 59.3464 39.1439 59.2194 39.0169C59.0924 38.8809 59.029 38.7085 59.029 38.4999C59.029 38.2913 59.0924 38.128 59.2194 38.0101C59.3555 37.8831 59.5233 37.8196 59.7229 37.8196H60.444V36.4454C60.444 36.1642 60.5302 35.9374 60.7025 35.7651C60.8748 35.5837 61.1061 35.493 61.3964 35.493C61.6776 35.493 61.9044 35.5837 62.0767 35.7651C62.2581 35.9374 62.3488 36.1642 62.3488 36.4454V37.8196H63.5734C63.782 37.8196 63.9453 37.8831 64.0632 38.0101C64.1902 38.1371 64.2537 38.3049 64.2537 38.5135C64.2537 38.7221 64.1902 38.89 64.0632 39.0169C63.9453 39.1439 63.782 39.2074 63.5734 39.2074H62.3488V42.6498C62.3488 42.9672 62.4169 43.194 62.5529 43.3301C62.698 43.4661 62.943 43.5342 63.2876 43.5342C63.3783 43.5251 63.4691 43.516 63.5598 43.507C63.7956 43.4888 63.977 43.5478 64.104 43.6838C64.231 43.8108 64.2945 43.9832 64.2945 44.2009C64.2945 44.4186 64.2401 44.5864 64.1312 44.7043C64.0224 44.8131 63.8591 44.8948 63.6414 44.9492C63.4509 44.9946 63.2015 45.0172 62.8931 45.0172Z" fill="#1F1F1F"/>
<path d="M68.8562 45.0172C68.0762 45.0172 67.4049 44.8676 66.8425 44.5682C66.2892 44.2689 65.8629 43.8471 65.5636 43.3029C65.2642 42.7586 65.1146 42.1282 65.1146 41.4116V41.2347C65.1146 40.5272 65.2597 39.9013 65.55 39.3571C65.8493 38.8129 66.2711 38.3911 66.8153 38.0917C67.3596 37.7924 67.9945 37.6427 68.7202 37.6427C69.4912 37.6427 70.1307 37.8105 70.6386 38.1462C71.1466 38.4727 71.5139 38.8854 71.7407 39.3843C71.9675 39.8741 72.0809 40.3685 72.0809 40.8674C72.0809 41.1667 72.0038 41.3889 71.8496 41.5341C71.7044 41.6701 71.4777 41.7382 71.1693 41.7382H66.9786V41.7518C67.0239 42.3686 67.2008 42.8266 67.5092 43.126C67.8176 43.4253 68.2712 43.575 68.8698 43.575C69.1782 43.575 69.4594 43.5296 69.7134 43.4389C69.9765 43.3391 70.2214 43.1895 70.4481 42.9899C70.557 42.9083 70.6613 42.8266 70.7611 42.745C70.8609 42.6724 70.9516 42.618 71.0332 42.5817C71.1239 42.5455 71.2237 42.5273 71.3325 42.5273C71.5321 42.5273 71.6908 42.5908 71.8087 42.7178C71.9357 42.8448 71.9992 43.0081 71.9992 43.2076C71.9992 43.38 71.9584 43.5296 71.8768 43.6566C71.7951 43.7836 71.6636 43.9287 71.4822 44.092C71.1829 44.3641 70.7928 44.5864 70.3121 44.7587C69.8313 44.9311 69.346 45.0172 68.8562 45.0172ZM70.2304 40.5816C70.1942 40.1009 70.0445 39.729 69.7814 39.4659C69.5275 39.1938 69.1646 39.0578 68.693 39.0578C68.2031 39.0578 67.8176 39.1848 67.5364 39.4387C67.2643 39.6927 67.0874 40.0737 67.0058 40.5816H70.2304Z" fill="#1F1F1F"/>
<path d="M74.4215 44.9356C74.1403 44.9356 73.909 44.8494 73.7276 44.6771C73.5553 44.5047 73.4691 44.2734 73.4691 43.9832V38.6496C73.4691 38.3775 73.5553 38.1552 73.7276 37.9829C73.9 37.8105 74.1267 37.7244 74.4079 37.7244C74.671 37.7244 74.8841 37.8015 75.0474 37.9557C75.2107 38.1099 75.3059 38.323 75.3331 38.5952L75.3467 38.9081C75.5463 38.5453 75.832 38.2459 76.2039 38.0101C76.5758 37.7652 77.0339 37.6427 77.5781 37.6427C78.4126 37.6427 79.0249 37.8831 79.4149 38.3639C79.805 38.8355 80 39.4886 80 40.3231V43.9968C80 44.278 79.9138 44.5047 79.7415 44.6771C79.5691 44.8494 79.3378 44.9356 79.0476 44.9356C78.7755 44.9356 78.5487 44.8494 78.3673 44.6771C78.1949 44.5047 78.1088 44.278 78.1088 43.9968V40.7993C78.1088 40.2642 78.009 39.8605 77.8094 39.5884C77.6189 39.3163 77.3015 39.1802 76.857 39.1802C76.4125 39.1802 76.0542 39.339 75.7821 39.6564C75.51 39.9648 75.3739 40.3957 75.3739 40.949V43.9832C75.3739 44.2734 75.2878 44.5047 75.1154 44.6771C74.9431 44.8494 74.7118 44.9356 74.4215 44.9356Z" fill="#1F1F1F"/>
</svg>
