<svg width="40" height="40" viewBox="0 0 40 40" fill="none" xmlns="http://www.w3.org/2000/svg">
<circle cx="20" cy="20" r="20" fill="#F2F2F2"/>
<path fill-rule="evenodd" clip-rule="evenodd" d="M20 40C31.0457 40 40 31.0457 40 20C40 8.9543 31.0457 0 20 0C8.9543 0 0 8.9543 0 20C0 31.0457 8.9543 40 20 40ZM15.6484 9.49473C16.8025 8.34066 18.3678 7.69231 19.9999 7.69231C21.632 7.69231 23.1972 8.34066 24.3513 9.49473C25.5054 10.6488 26.1537 12.2141 26.1537 13.8462C26.1537 15.4783 25.5054 17.0435 24.3513 18.1976C23.1972 19.3517 21.632 20 19.9999 20C18.3678 20 16.8025 19.3517 15.6484 18.1976C14.4944 17.0435 13.846 15.4783 13.846 13.8462C13.846 12.2141 14.4944 10.6488 15.6484 9.49473ZM11.1399 21.7691C11.5147 21.6152 11.9162 21.5368 12.3214 21.5385H27.6922C28.5082 21.5385 29.2909 21.8626 29.8679 22.4397C30.4449 23.0167 30.7691 23.7993 30.7691 24.6154C30.7691 27.2154 29.4876 29.18 27.4845 30.4569C25.5122 31.7138 22.8537 32.3077 19.9999 32.3077C17.146 32.3077 14.4876 31.7138 12.5153 30.4569C10.5122 29.1785 9.23064 27.2169 9.23064 24.6154C9.23084 24.2102 9.31102 23.8091 9.46659 23.4349C9.62216 23.0608 9.85005 22.7211 10.1372 22.4352C10.4243 22.1494 10.7651 21.923 11.1399 21.7691Z" fill="#1F1F1F"/>
</svg>
