<svg width="51" height="50" viewBox="0 0 51 50" fill="none" xmlns="http://www.w3.org/2000/svg">
<path d="M24.3172 5.30892L24.9025 5.37302C22.9109 8.38502 22.1141 12.0406 22.6696 15.6163C23.1658 18.7861 25.58 20.7444 27.743 21.6418L37.4222 25.6802C39.5851 26.584 42.6641 26.9205 45.2374 25.0359C47.3149 23.5126 48.9466 21.4532 49.9609 19.0746C50.5716 20.9335 50.8929 23.0168 50.8929 25.3436C50.8929 30.9621 49.1911 34.9011 47.4258 37.4555C46.6095 38.6453 45.6356 39.7172 44.5312 40.6413V45.1924C44.5312 46.4675 44.0286 47.6903 43.1338 48.5919C42.239 49.4935 41.0254 50 39.76 50H35.3578C34.4158 49.9983 33.5129 49.62 32.8474 48.9482C32.1818 48.2764 31.808 47.366 31.808 46.4168C31.8085 46.3677 31.7992 46.319 31.7809 46.2735C31.7625 46.228 31.7354 46.1867 31.7011 46.1518C31.6668 46.1169 31.626 46.0893 31.581 46.0704C31.536 46.0515 31.4878 46.0418 31.4391 46.0418H25.8154C25.7667 46.0418 25.7184 46.0515 25.6735 46.0704C25.6285 46.0893 25.5877 46.1169 25.5534 46.1518C25.5191 46.1867 25.4919 46.228 25.4736 46.2735C25.4552 46.319 25.446 46.3677 25.4464 46.4168C25.4464 48.3943 23.856 49.9968 21.8967 49.9968H17.4944C16.229 49.9968 15.0154 49.4903 14.1207 48.5887C13.2259 47.6871 12.7232 46.4643 12.7232 45.1892V43.4649C12.5543 43.3653 12.3878 43.2617 12.2238 43.154C11.3078 42.5547 10.0291 41.5579 8.41005 39.9041C6.80143 38.2408 5.50597 36.2969 4.58672 34.1671C4.49902 33.9352 4.35638 33.7284 4.17121 33.5647C3.98604 33.401 3.76397 33.2854 3.52433 33.228C2.53844 33.0598 1.64353 32.5452 0.998372 31.7755C0.353212 31.0057 -0.000494686 30.0306 5.19276e-07 29.023V24.1962C5.19276e-07 22.177 1.44727 20.4527 3.42254 20.1194C3.79788 20.0553 4.21456 19.7188 4.39905 19.1483C4.88571 17.6547 5.82405 15.4465 7.54805 13.6837C9.06933 12.1496 10.8146 10.8591 12.7232 9.85687V2.44041C12.7232 1.30903 13.4548 0.507768 14.25 0.184058C15.0452 -0.136446 16.098 -0.078755 16.8805 0.68084C17.7966 1.57184 19.0594 2.6904 20.4271 3.61666C21.8299 4.56214 23.1881 5.19354 24.3172 5.30892ZM15.1088 22.754C15.7415 22.754 16.3483 22.5007 16.7957 22.0499C17.2431 21.5991 17.4944 20.9877 17.4944 20.3502C17.4944 19.7127 17.2431 19.1012 16.7957 18.6504C16.3483 18.1996 15.7415 17.9464 15.1088 17.9464C14.4761 17.9464 13.8693 18.1996 13.4219 18.6504C12.9746 19.1012 12.7232 19.7127 12.7232 20.3502C12.7232 20.9877 12.9746 21.5991 13.4219 22.0499C13.8693 22.5007 14.4761 22.754 15.1088 22.754ZM47.8329 14.8535L47.8456 14.8728C47.644 16.3736 47.1433 17.8179 46.3737 19.1188C45.604 20.4197 44.5814 21.5505 43.3671 22.4431C42.0025 23.443 40.1958 23.3725 38.6372 22.7219L28.9612 18.6835C27.4662 18.0586 26.1812 16.8951 25.8472 15.3183C25.5619 13.7221 25.6235 12.0827 26.0277 10.5128C26.4319 8.94298 27.1691 7.48012 28.1885 6.22507C29.2079 4.97001 30.4853 3.95262 31.9326 3.24299C33.3799 2.53337 34.9626 2.1484 36.5718 2.11462C38.181 2.08084 39.7784 2.39905 41.2537 3.04732C42.7291 3.69559 44.0474 4.6585 45.1178 5.86969C46.1882 7.08087 46.9853 8.51152 47.454 10.063C47.9227 11.6145 48.052 13.2468 47.8329 14.8535Z" fill="#1F1F1F"/>
</svg>
