<svg width="31" height="32" viewBox="0 0 31 32" fill="none" xmlns="http://www.w3.org/2000/svg">
<path d="M9.75 2.01733C8.88805 2.01733 8.0614 2.35974 7.4519 2.96924C6.84241 3.57873 6.5 4.40538 6.5 5.26733V26.7673C6.5 27.6293 6.84241 28.4559 7.4519 29.0654C8.0614 29.6749 8.88805 30.0173 9.75 30.0173H21.25C22.112 30.0173 22.9386 29.6749 23.5481 29.0654C24.1576 28.4559 24.5 27.6293 24.5 26.7673V5.26733C24.5 4.40538 24.1576 3.57873 23.5481 2.96924C22.9386 2.35974 22.112 2.01733 21.25 2.01733H9.75ZM8.5 5.26733C8.5 4.57733 9.06 4.01733 9.75 4.01733H21.25C21.94 4.01733 22.5 4.57733 22.5 5.26733V26.7673C22.5 27.4573 21.94 28.0173 21.25 28.0173H9.75C9.06 28.0173 8.5 27.4573 8.5 26.7673V5.26733ZM13.5 24.0173C13.2348 24.0173 12.9804 24.1227 12.7929 24.3102C12.6054 24.4978 12.5 24.7521 12.5 25.0173C12.5 25.2826 12.6054 25.5369 12.7929 25.7244C12.9804 25.912 13.2348 26.0173 13.5 26.0173H17.5C17.7652 26.0173 18.0196 25.912 18.2071 25.7244C18.3946 25.5369 18.5 25.2826 18.5 25.0173C18.5 24.7521 18.3946 24.4978 18.2071 24.3102C18.0196 24.1227 17.7652 24.0173 17.5 24.0173H13.5Z" fill="#1F1F1F" stroke="#1F1F1F" stroke-width="0.5"/>
</svg>
