<svg width="31" height="32" viewBox="0 0 31 32" fill="none" xmlns="http://www.w3.org/2000/svg">
<path d="M4.3 27.2174C3.53 27.2174 2.8706 26.943 2.3218 26.3942C1.773 25.8454 1.49907 25.1864 1.5 24.4174V7.61738C1.5 6.84738 1.7744 6.18798 2.3232 5.63918C2.872 5.09038 3.53094 4.81645 4.3 4.81739H26.7C27.47 4.81739 28.1294 5.09178 28.6782 5.64058C29.227 6.18938 29.5009 6.84832 29.5 7.61738V24.4174C29.5 25.1874 29.2256 25.8468 28.6768 26.3956C28.128 26.9444 27.4691 27.2183 26.7 27.2174H4.3ZM15.5 17.4174L4.3 10.4174V24.4174H26.7V10.4174L15.5 17.4174ZM15.5 14.6174L26.7 7.61738H4.3L15.5 14.6174ZM4.3 10.4174V7.61738V24.4174V10.4174Z" fill="#1F1F1F"/>
</svg>
