<svg width="31" height="32" viewBox="0 0 31 32" fill="none" xmlns="http://www.w3.org/2000/svg">
<g clip-path="url(#clip0_2511_14590)">
<path fill-rule="evenodd" clip-rule="evenodd" d="M15.5 28.6111C17.7109 28.6143 19.8833 28.0328 21.7969 26.9255V22.7986C21.7969 21.6424 21.3376 20.5336 20.52 19.716C19.7025 18.8985 18.5937 18.4392 17.4375 18.4392H13.5625C12.4063 18.4392 11.2975 18.8985 10.48 19.716C9.66242 20.5336 9.20312 21.6424 9.20312 22.7986V26.9255C11.1167 28.0328 13.2891 28.6143 15.5 28.6111ZM24.7031 22.7986V24.614C26.3785 22.8205 27.4933 20.5765 27.9105 18.1579C28.3277 15.7394 28.0291 13.2516 27.0514 11.0004C26.0737 8.74926 24.4595 6.83283 22.4073 5.48672C20.3551 4.1406 17.9543 3.42347 15.5 3.42347C13.0457 3.42347 10.6449 4.1406 8.59268 5.48672C6.54047 6.83283 4.92631 8.74926 3.94862 11.0004C2.97094 13.2516 2.67234 15.7394 3.08953 18.1579C3.50671 20.5765 4.62151 22.8205 6.29688 24.614V22.7986C6.29686 21.3007 6.75958 19.8393 7.62174 18.6144C8.48391 17.3894 9.70342 16.4608 11.1135 15.9553C10.3819 15.1138 9.90775 14.0796 9.74769 12.976C9.58763 11.8725 9.74838 10.7462 10.2108 9.73147C10.6732 8.71676 11.4177 7.85647 12.3555 7.25322C13.2933 6.64996 14.3849 6.3292 15.5 6.3292C16.6151 6.3292 17.7067 6.64996 18.6445 7.25322C19.5823 7.85647 20.3268 8.71676 20.7892 9.73147C21.2516 10.7462 21.4124 11.8725 21.2523 12.976C21.0922 14.0796 20.6181 15.1138 19.8865 15.9553C21.2966 16.4608 22.5161 17.3894 23.3783 18.6144C24.2404 19.8393 24.7031 21.3007 24.7031 22.7986ZM15.5 31.5173C19.6109 31.5173 23.5533 29.8843 26.4602 26.9775C29.367 24.0707 31 20.1282 31 16.0173C31 11.9065 29.367 7.96399 26.4602 5.05718C23.5533 2.15037 19.6109 0.517334 15.5 0.517334C11.3891 0.517334 7.44666 2.15037 4.53984 5.05718C1.63303 7.96399 0 11.9065 0 16.0173C0 20.1282 1.63303 24.0707 4.53984 26.9775C7.44666 29.8843 11.3891 31.5173 15.5 31.5173ZM18.4062 12.1423C18.4062 12.9131 18.1001 13.6523 17.555 14.1974C17.01 14.7424 16.2708 15.0486 15.5 15.0486C14.7292 15.0486 13.99 14.7424 13.445 14.1974C12.8999 13.6523 12.5938 12.9131 12.5938 12.1423C12.5938 11.3715 12.8999 10.6323 13.445 10.0873C13.99 9.54228 14.7292 9.23608 15.5 9.23608C16.2708 9.23608 17.01 9.54228 17.555 10.0873C18.1001 10.6323 18.4062 11.3715 18.4062 12.1423Z" fill="#1F1F1F"/>
</g>
<defs>
<clipPath id="clip0_2511_14590">
<rect width="31" height="31" fill="white" transform="translate(0 0.517334)"/>
</clipPath>
</defs>
</svg>
