<svg width="22" height="22" viewBox="0 0 22 22" fill="none" xmlns="http://www.w3.org/2000/svg">
<path d="M19.5066 19.6174L15.1636 15.2744M15.1636 15.2744C15.9064 14.5315 16.4957 13.6496 16.8978 12.6789C17.2998 11.7083 17.5068 10.668 17.5068 9.61739C17.5068 8.56679 17.2998 7.52648 16.8978 6.55585C16.4957 5.58522 15.9064 4.70328 15.1636 3.96039C14.4207 3.21751 13.5387 2.62821 12.5681 2.22617C11.5975 1.82412 10.5572 1.61719 9.50655 1.61719C8.45595 1.61719 7.41564 1.82412 6.44501 2.22617C5.47438 2.62821 4.59244 3.21751 3.84955 3.96039C2.34922 5.46072 1.50635 7.49561 1.50635 9.61739C1.50635 11.7392 2.34922 13.7741 3.84955 15.2744C5.34988 16.7747 7.38477 17.6176 9.50655 17.6176C11.6283 17.6176 13.6632 16.7747 15.1636 15.2744Z" stroke="#1F1F1F" stroke-width="3" stroke-linecap="round" stroke-linejoin="round"/>
</svg>
