<svg width="30" height="18" viewBox="0 0 30 18" fill="none" xmlns="http://www.w3.org/2000/svg">
<path d="M0 4.7175L4.28009 4.12213V5.68299L2.8802 5.82777V11.9264H1.3999V5.98866L0 6.13351V4.7175ZM4.97195 4.02553L9.31633 3.41405V4.97491L6.54884 5.3128V7.05066L8.91409 6.87366V8.37015L6.54884 8.51493V10.4459L9.31633 10.3815V11.9263H4.97195V4.02553ZM11.9068 10.2529L15.0927 10.1885V11.9264H10.1047V3.30142L11.9068 3.04393L11.9068 10.2529ZM15.8329 2.4969L21.5933 1.67626V3.60716L17.9086 4.02553V6.03692L21.0624 5.79554V7.64604L17.9086 7.82304V10.108L21.5933 9.97927V11.9263H15.8329V2.4969ZM29.8798 9.72179V11.9263H22.4461V9.96316C23.9103 8.5793 25.7607 6.58403 26.4366 5.79554C26.9675 5.16802 27.2089 4.63694 27.2089 4.08991C27.2089 3.47842 26.8389 3.02782 26.1469 3.02782C25.278 3.02782 24.7309 3.68757 24.7309 4.79783C24.7309 4.91046 24.7309 5.0392 24.747 5.15183L22.5266 5.34495C22.3496 2.48078 23.9264 0.759033 26.5974 0.759033C28.4639 0.759033 29.7511 1.91764 29.7511 3.60716C29.7511 5.44154 28.8662 6.53577 26.8226 8.69201L25.7285 9.8345L29.8798 9.72179Z" fill="black"/>
<path d="M2.01164 17.2757C2.56369 17.2757 3.01121 16.8282 3.01121 16.2761C3.01121 15.724 2.56369 15.2765 2.01164 15.2765C1.4596 15.2765 1.01208 15.724 1.01208 16.2761C1.01208 16.8282 1.4596 17.2757 2.01164 17.2757Z" fill="#CEA100"/>
<path d="M29.0004 17.2757C29.5525 17.2757 30 16.8282 30 16.2761C30 15.724 29.5525 15.2765 29.0004 15.2765C28.4484 15.2765 28.0009 15.724 28.0009 16.2761C28.0009 16.8282 28.4484 17.2757 29.0004 17.2757Z" fill="#BD003C"/>
<path d="M23.6028 17.2757C24.1548 17.2757 24.6023 16.8282 24.6023 16.2761C24.6023 15.724 24.1548 15.2765 23.6028 15.2765C23.0507 15.2765 22.6032 15.724 22.6032 16.2761C22.6032 16.8282 23.0507 17.2757 23.6028 17.2757Z" fill="#AD00FF"/>
<path d="M18.2049 17.2757C18.757 17.2757 19.2045 16.8282 19.2045 16.2761C19.2045 15.724 18.757 15.2765 18.2049 15.2765C17.6529 15.2765 17.2054 15.724 17.2054 16.2761C17.2054 16.8282 17.6529 17.2757 18.2049 17.2757Z" fill="#004EFF"/>
<path d="M12.8073 17.2757C13.3593 17.2757 13.8068 16.8282 13.8068 16.2761C13.8068 15.724 13.3593 15.2765 12.8073 15.2765C12.2552 15.2765 11.8077 15.724 11.8077 16.2761C11.8077 16.8282 12.2552 17.2757 12.8073 17.2757Z" fill="#23ACEA"/>
<path d="M7.40946 17.2757C7.96151 17.2757 8.40903 16.8282 8.40903 16.2761C8.40903 15.724 7.96151 15.2765 7.40946 15.2765C6.85742 15.2765 6.4099 15.724 6.4099 16.2761C6.4099 16.8282 6.85742 17.2757 7.40946 17.2757Z" fill="#2DC136"/>
</svg>
